<svg xmlns="http://www.w3.org/2000/svg" xmlns:xlink="http://www.w3.org/1999/xlink" width="500" zoomAndPan="magnify" viewBox="0 0 375 374.999991" height="500" preserveAspectRatio="xMidYMid meet" version="1.0"><defs><clipPath id="id1"><path d="M 28 23 L 337.339844 23 L 337.339844 373 L 28 373 Z M 28 23 " clip-rule="nonzero"/></clipPath></defs><path fill="#21ac85" d="M 240.554688 108.578125 C 248.472656 103.660156 255.703125 116.140625 247.835938 121.027344 C 236.363281 128.148438 226.625 138.105469 218.882812 149.546875 C 226.753906 151.761719 239.03125 153.394531 249.597656 146.789062 C 263.046875 138.382812 271.039062 118.945312 273.363281 89.011719 C 273.386719 88.691406 273.144531 88.09375 272.632812 87.582031 C 272.144531 87.089844 271.578125 86.84375 271.25 86.84375 C 271.238281 86.84375 271.222656 86.84375 271.207031 86.847656 C 241.253906 88.988281 221.761719 96.859375 213.269531 110.253906 C 207.414062 119.492188 207.894531 130.09375 209.570312 137.882812 C 217.992188 126.253906 228.367188 116.140625 240.554688 108.578125 " fill-opacity="1" fill-rule="nonzero"/><path fill="#2ed1a2" d="M 169.578125 162.183594 C 162.9375 150.402344 154.320312 140.332031 143.394531 133.613281 C 135.492188 128.757812 142.746094 116.285156 150.675781 121.160156 C 161.949219 128.09375 171.042969 137.640625 178.296875 148.691406 C 179.175781 144.183594 179.183594 139.101562 177.09375 134.140625 C 172.449219 123.125 158.167969 114.433594 135.789062 108.996094 C 135.664062 109.042969 135.5 109.164062 135.410156 109.265625 C 133.402344 132.199219 137.074219 148.507812 146.023438 156.429688 C 153.402344 162.964844 163.40625 162.988281 169.578125 162.183594 " fill-opacity="1" fill-rule="nonzero"/><g clip-path="url(#id1)"><path fill="#332195" d="M 231.140625 27.289062 C 188.667969 19.957031 139.769531 22.265625 103.871094 48.722656 C 80.167969 66.191406 62.609375 94.144531 60.042969 123.789062 C 58.976562 136.109375 59.949219 147.808594 55.902344 159.847656 C 53.640625 166.574219 50.183594 172.605469 46.785156 178.777344 C 43.121094 185.421875 39.460938 192.066406 35.800781 198.714844 C 33.410156 203.046875 29.652344 208.035156 28.644531 213.011719 C 27 221.15625 32.628906 228.429688 40.574219 229.804688 C 42.925781 230.214844 47.484375 229.03125 49.371094 230.0625 C 51.585938 231.273438 50.128906 229.773438 50.8125 233.054688 C 52.0625 239.039062 50.8125 246.644531 50.8125 252.75 C 50.8125 260.488281 50.8125 268.226562 50.8125 275.960938 C 50.8125 293.59375 54.335938 308.152344 72.550781 315.472656 C 80.050781 318.492188 87.992188 322.167969 96.222656 321.9375 C 102.488281 321.765625 109.015625 319.921875 115.136719 318.804688 C 123.128906 317.34375 131.671875 314.730469 139.785156 314.300781 C 146.351562 313.953125 148.628906 317.027344 148.894531 323.398438 C 149.472656 337.351562 148.894531 351.4375 148.894531 365.402344 C 148.894531 374.6875 163.316406 374.703125 163.316406 365.402344 C 163.316406 353.332031 163.316406 341.25 163.316406 329.175781 C 163.316406 316.308594 161.867188 301.917969 145.910156 299.703125 C 134.5 298.121094 120.570312 303.203125 109.4375 305.238281 C 105.140625 306.023438 100.609375 307.339844 96.222656 307.519531 C 89.8125 307.78125 81.289062 304.054688 75.527344 301.242188 C 61.9375 294.617188 65.238281 277.492188 65.238281 264.972656 C 65.238281 253.394531 66.207031 241.347656 65.238281 229.800781 C 64.535156 221.429688 58.910156 216.269531 50.601562 215.644531 C 49.601562 215.566406 43.539062 216.320312 42.964844 215.644531 C 43.023438 215.714844 44.371094 213.035156 45.152344 211.617188 C 51.09375 200.839844 57.152344 190.117188 62.976562 179.277344 C 68.019531 169.882812 71.5625 159.992188 73.136719 149.425781 C 74.847656 137.945312 73.316406 126.375 75.90625 114.988281 C 78.582031 103.222656 84.058594 91.984375 90.949219 82.125 C 112.796875 50.847656 150.667969 38.859375 187.417969 38.273438 C 226.101562 37.65625 269.988281 45.570312 296.621094 76.1875 C 315.429688 97.804688 321.570312 127.117188 322.472656 155.027344 C 323.078125 173.890625 322.007812 192.347656 315.988281 210.402344 C 307.957031 234.507812 294.347656 257.457031 278.519531 277.269531 C 269 289.191406 255.285156 297.269531 254.957031 313.628906 C 254.699219 326.703125 254.957031 339.808594 254.957031 352.890625 C 254.957031 362.167969 269.386719 362.183594 269.386719 352.890625 C 269.386719 340.421875 269.386719 327.953125 269.386719 315.488281 C 269.386719 308.984375 271.691406 305.925781 276.429688 301.300781 C 282.449219 295.425781 287.773438 288.832031 292.867188 282.15625 C 319.148438 247.707031 336.75 208.808594 337.019531 165.113281 C 337.191406 136.292969 333.0625 106.179688 317.90625 81.109375 C 299.148438 50.089844 266.050781 33.316406 231.140625 27.289062 " fill-opacity="1" fill-rule="nonzero"/></g><path fill="#332195" d="M 135.410156 109.265625 C 135.5 109.164062 135.664062 109.042969 135.789062 108.992188 C 158.167969 114.429688 172.449219 123.125 177.09375 134.140625 C 179.183594 139.101562 179.175781 144.183594 178.296875 148.691406 C 171.046875 137.640625 161.949219 128.09375 150.675781 121.160156 C 142.746094 116.285156 135.492188 128.757812 143.394531 133.613281 C 154.320312 140.332031 162.9375 150.402344 169.578125 162.183594 C 163.40625 162.988281 153.402344 162.960938 146.023438 156.433594 C 137.074219 148.511719 133.402344 132.203125 135.410156 109.265625 Z M 213.269531 110.253906 C 221.761719 96.859375 241.253906 88.988281 271.207031 86.847656 L 271.210938 86.847656 C 271.226562 86.84375 271.238281 86.84375 271.25 86.84375 C 271.578125 86.84375 272.144531 87.089844 272.632812 87.582031 C 273.144531 88.097656 273.386719 88.691406 273.363281 89.011719 C 271.039062 118.945312 263.042969 138.382812 249.59375 146.792969 C 239.03125 153.394531 226.753906 151.761719 218.882812 149.546875 C 226.625 138.105469 236.363281 128.148438 247.835938 121.027344 C 255.707031 116.140625 248.472656 103.660156 240.554688 108.574219 C 228.367188 116.140625 217.992188 126.253906 209.570312 137.882812 C 207.894531 130.097656 207.414062 119.492188 213.269531 110.253906 Z M 136.460938 167.230469 C 145.230469 174.992188 155.785156 176.949219 164.207031 176.949219 C 169.121094 176.949219 173.3125 176.28125 175.988281 175.707031 C 176.015625 175.707031 176.046875 175.691406 176.074219 175.6875 C 184.164062 195.457031 187.835938 217.867188 188.308594 236.875 C 188.542969 246.136719 202.964844 246.175781 202.738281 236.875 C 202.46875 226.113281 201.316406 214.582031 199.09375 203.003906 C 199.144531 202.757812 199.222656 202.527344 199.253906 202.265625 C 200.78125 188.792969 204.949219 175.003906 211.371094 162.304688 C 216.421875 164.015625 223.851562 165.902344 232.226562 165.902344 C 240.183594 165.902344 248.953125 164.195312 257.242188 159.015625 C 274.789062 148.050781 285.046875 124.875 287.746094 90.128906 C 288.101562 85.527344 286.320312 80.898438 282.867188 77.417969 C 279.40625 73.9375 274.761719 72.125 270.179688 72.460938 C 235.40625 74.945312 212.164062 85.0625 201.085938 102.535156 C 189.078125 121.472656 195.371094 143.089844 198.632812 151.507812 C 198.9375 152.296875 199.328125 153.054688 199.757812 153.789062 C 196.320312 160.351562 193.410156 167.191406 191.074219 174.191406 C 189.972656 171.265625 188.785156 168.371094 187.503906 165.539062 C 191.460938 157.765625 196.613281 143.308594 190.382812 128.539062 C 183.785156 112.886719 166.496094 101.582031 139 94.933594 C 135.007812 93.96875 130.695312 94.863281 127.171875 97.398438 C 123.648438 99.925781 121.417969 103.722656 121.058594 107.808594 L 121.058594 107.804688 C 118.558594 135.976562 123.738281 155.96875 136.460938 167.230469 " fill-opacity="1" fill-rule="nonzero"/></svg>