<svg xmlns="http://www.w3.org/2000/svg" xmlns:xlink="http://www.w3.org/1999/xlink" width="500" zoomAndPan="magnify" viewBox="0 0 375 374.999991" height="500" preserveAspectRatio="xMidYMid meet" version="1.0"><defs><clipPath id="id1"><path d="M 38.71875 8.601562 L 345.0625 8.601562 L 345.0625 366.351562 L 38.71875 366.351562 Z M 38.71875 8.601562 " clip-rule="nonzero"/></clipPath></defs><g clip-path="url(#id1)"><path fill="#68b4e7" d="M 329.234375 211.296875 C 327.886719 229.292969 317.535156 244.59375 304.066406 248.507812 C 299.246094 249.894531 295.121094 253.304688 292.761719 257.851562 C 285.398438 272.035156 246.082031 342.855469 191.679688 350.582031 C 137.402344 342.878906 98.34375 272.078125 91.039062 257.894531 C 88.683594 253.328125 84.558594 249.894531 79.738281 248.507812 C 66.269531 244.570312 55.914062 229.292969 54.566406 211.296875 C 53.410156 195.890625 58.882812 181.539062 68.855469 173.816406 C 73.550781 170.195312 76.242188 164.785156 76.242188 158.914062 C 76.203125 111.140625 88.722656 75.253906 113.453125 52.253906 C 141.148438 26.472656 176.820312 24.34375 187.746094 24.34375 C 189.828125 24.34375 191.007812 24.429688 191.070312 24.429688 L 191.679688 24.472656 L 192.269531 24.429688 C 192.710938 24.410156 236.929688 21.398438 270.203125 52.253906 C 295.015625 75.253906 307.578125 111.140625 307.558594 158.933594 C 307.558594 164.765625 310.25 170.195312 314.925781 173.816406 C 324.898438 181.539062 330.394531 195.890625 329.234375 211.296875 Z M 324.519531 161.398438 C 323.722656 160.785156 323.257812 159.882812 323.257812 158.933594 C 323.277344 106.59375 309.03125 66.835938 280.871094 40.738281 C 244.421875 6.941406 197.785156 8.390625 191.679688 8.75 C 185.597656 8.371094 139.214844 6.960938 102.910156 40.59375 C 74.769531 66.691406 60.5 106.507812 60.542969 158.933594 C 60.542969 159.882812 60.082031 160.785156 59.28125 161.398438 C 45.160156 172.300781 37.371094 191.871094 38.910156 212.476562 C 40.761719 237.246094 55.410156 257.765625 75.339844 263.574219 C 76.054688 263.785156 76.707031 264.332031 77.085938 265.070312 C 88.304688 286.851562 129.679688 358.515625 190.691406 366.28125 L 191.679688 366.40625 L 192.667969 366.28125 C 253.785156 358.492188 295.394531 286.851562 306.695312 265.070312 C 307.09375 264.332031 307.726562 263.785156 308.441406 263.574219 C 328.371094 257.789062 343.019531 237.246094 344.894531 212.476562 C 346.429688 191.871094 338.621094 172.300781 324.519531 161.398438 " fill-opacity="1" fill-rule="nonzero"/></g><path fill="#68b4e7" d="M 283.082031 191.683594 L 249.515625 191.683594 L 249.515625 175.539062 L 283.082031 175.539062 Z M 175.117188 88.808594 L 175.117188 72.667969 L 208.683594 72.667969 L 208.683594 88.808594 Z M 208.683594 175.539062 L 208.683594 191.683594 L 175.117188 191.683594 L 175.117188 175.539062 Z M 134.265625 175.539062 L 134.265625 191.683594 L 100.699219 191.683594 L 100.699219 175.539062 Z M 289.542969 159.839844 L 274.160156 159.839844 L 274.160156 142.121094 C 274.160156 132.289062 266.183594 124.3125 256.355469 124.3125 L 199.742188 124.3125 L 199.742188 104.511719 L 215.144531 104.511719 C 220.238281 104.511719 224.386719 100.363281 224.386719 95.25 L 224.386719 66.207031 C 224.386719 61.113281 220.238281 56.964844 215.144531 56.964844 L 168.65625 56.964844 C 163.5625 56.964844 159.417969 61.113281 159.417969 66.207031 L 159.417969 95.25 C 159.417969 100.363281 163.5625 104.511719 168.65625 104.511719 L 184.039062 104.511719 L 184.039062 124.3125 L 127.425781 124.3125 C 117.621094 124.3125 109.644531 132.289062 109.644531 142.121094 L 109.644531 159.839844 L 94.257812 159.839844 C 89.144531 159.839844 85.019531 163.984375 85.019531 169.078125 L 85.019531 198.121094 C 85.019531 203.214844 89.144531 207.363281 94.257812 207.363281 L 140.726562 207.363281 C 145.820312 207.363281 149.96875 203.214844 149.96875 198.121094 L 149.96875 169.078125 C 149.96875 163.984375 145.820312 159.839844 140.726562 159.839844 L 125.34375 159.839844 L 125.34375 142.121094 C 125.34375 140.960938 126.269531 140.015625 127.425781 140.015625 L 184.039062 140.015625 L 184.039062 159.839844 L 168.65625 159.839844 C 163.5625 159.839844 159.417969 163.984375 159.417969 169.078125 L 159.417969 198.121094 C 159.417969 203.214844 163.5625 207.363281 168.65625 207.363281 L 215.144531 207.363281 C 220.238281 207.363281 224.386719 203.214844 224.386719 198.121094 L 224.386719 169.078125 C 224.386719 163.984375 220.238281 159.839844 215.144531 159.839844 L 199.742188 159.839844 L 199.742188 140.015625 L 256.355469 140.015625 C 257.511719 140.015625 258.457031 140.960938 258.457031 142.121094 L 258.457031 159.839844 L 243.074219 159.839844 C 237.980469 159.839844 233.8125 163.984375 233.8125 169.078125 L 233.8125 198.121094 C 233.8125 203.214844 237.980469 207.363281 243.074219 207.363281 L 289.542969 207.363281 C 294.636719 207.363281 298.78125 203.214844 298.78125 198.121094 L 298.78125 169.078125 C 298.78125 163.984375 294.636719 159.839844 289.542969 159.839844 " fill-opacity="1" fill-rule="nonzero"/></svg>