<svg xmlns="http://www.w3.org/2000/svg" xmlns:xlink="http://www.w3.org/1999/xlink" width="500" zoomAndPan="magnify" viewBox="0 0 375 374.999991" height="500" preserveAspectRatio="xMidYMid meet" version="1.0"><defs><clipPath id="id1"><path d="M 85.476562 110 L 289.476562 110 L 289.476562 265.878906 L 85.476562 265.878906 Z M 85.476562 110 " clip-rule="nonzero"/></clipPath></defs><path fill="#3aaded" d="M 187.425781 251.464844 C 187.425781 251.539062 187.425781 251.613281 187.421875 251.683594 C 187.417969 251.832031 187.40625 251.980469 187.394531 252.125 C 187.40625 251.976562 187.417969 251.832031 187.421875 251.683594 C 187.425781 251.613281 187.425781 251.539062 187.425781 251.464844 " fill-opacity="1" fill-rule="nonzero"/><g clip-path="url(#id1)"><path fill="#00c2cb" d="M 250.039062 206.207031 C 253.203125 206.207031 255.796875 203.613281 255.796875 200.449219 C 255.796875 197.285156 253.203125 194.6875 250.039062 194.6875 C 246.871094 194.6875 244.28125 197.285156 244.28125 200.449219 C 244.28125 203.613281 246.871094 206.207031 250.039062 206.207031 Z M 250.039062 208.015625 C 254.203125 208.015625 257.605469 204.613281 257.605469 200.449219 C 257.605469 196.285156 254.203125 192.878906 250.039062 192.878906 C 245.875 192.878906 242.496094 196.285156 242.496094 200.449219 C 242.496094 204.613281 245.875 208.015625 250.039062 208.015625 Z M 236.953125 219.796875 C 240.117188 219.796875 242.6875 217.226562 242.6875 214.039062 C 242.6875 210.871094 240.117188 208.300781 236.953125 208.300781 C 233.789062 208.300781 231.195312 210.871094 231.195312 214.039062 C 231.195312 217.226562 233.789062 219.796875 236.953125 219.796875 Z M 236.953125 221.605469 C 241.117188 221.605469 244.496094 218.203125 244.496094 214.039062 C 244.496094 209.898438 241.117188 206.492188 236.953125 206.492188 C 232.789062 206.492188 229.386719 209.898438 229.386719 214.039062 C 229.386719 218.203125 232.789062 221.605469 236.953125 221.605469 Z M 176.519531 223.820312 C 179.6875 223.820312 182.253906 221.25 182.253906 218.085938 C 182.253906 214.917969 179.6875 212.324219 176.519531 212.324219 C 173.359375 212.324219 170.761719 214.917969 170.761719 218.085938 C 170.761719 221.25 173.359375 223.820312 176.519531 223.820312 Z M 176.519531 225.628906 C 180.683594 225.628906 184.0625 222.25 184.0625 218.085938 C 184.0625 213.917969 180.683594 210.515625 176.519531 210.515625 C 172.359375 210.515625 168.957031 213.917969 168.957031 218.085938 C 168.957031 222.25 172.359375 225.628906 176.519531 225.628906 Z M 150.328125 213.753906 C 153.492188 213.753906 156.085938 211.183594 156.085938 207.992188 C 156.085938 204.828125 153.492188 202.257812 150.328125 202.257812 C 147.164062 202.257812 144.570312 204.828125 144.570312 207.992188 C 144.570312 211.183594 147.164062 213.753906 150.328125 213.753906 Z M 150.328125 215.5625 C 154.488281 215.5625 157.890625 212.15625 157.890625 207.992188 C 157.890625 203.851562 154.488281 200.449219 150.328125 200.449219 C 146.164062 200.449219 142.785156 203.851562 142.785156 207.992188 C 142.785156 212.15625 146.164062 215.5625 150.328125 215.5625 Z M 127.152344 206.707031 C 130.339844 206.707031 132.910156 204.113281 132.910156 200.949219 C 132.910156 197.785156 130.339844 195.191406 127.152344 195.191406 C 123.988281 195.191406 121.417969 197.785156 121.417969 200.949219 C 121.417969 204.113281 123.988281 206.707031 127.152344 206.707031 Z M 127.152344 208.515625 C 131.316406 208.515625 134.71875 205.113281 134.71875 200.949219 C 134.71875 196.78125 131.316406 193.40625 127.152344 193.40625 C 123.011719 193.40625 119.613281 196.78125 119.613281 200.949219 C 119.613281 205.113281 123.011719 208.515625 127.152344 208.515625 Z M 169.980469 186.550781 C 173.144531 186.550781 175.710938 183.980469 175.710938 180.789062 C 175.710938 177.625 173.144531 175.054688 169.980469 175.054688 C 166.789062 175.054688 164.222656 177.625 164.222656 180.789062 C 164.222656 183.980469 166.789062 186.550781 169.980469 186.550781 Z M 169.980469 188.359375 C 174.140625 188.359375 177.519531 184.957031 177.519531 180.789062 C 177.519531 176.648438 174.140625 173.246094 169.980469 173.246094 C 165.816406 173.246094 162.414062 176.648438 162.414062 180.789062 C 162.414062 184.957031 165.816406 188.359375 169.980469 188.359375 Z M 213.28125 197.640625 C 216.441406 197.640625 219.039062 195.046875 219.039062 191.882812 C 219.039062 188.714844 216.441406 186.121094 213.28125 186.121094 C 210.113281 186.121094 207.523438 188.714844 207.523438 191.882812 C 207.523438 195.046875 210.113281 197.640625 213.28125 197.640625 Z M 213.28125 199.449219 C 217.441406 199.449219 220.847656 196.046875 220.847656 191.882812 C 220.847656 187.714844 217.441406 184.335938 213.28125 184.335938 C 209.117188 184.335938 205.714844 187.714844 205.714844 191.882812 C 205.714844 196.046875 209.117188 199.449219 213.28125 199.449219 Z M 250.53125 169.195312 C 254.953125 169.195312 258.570312 165.574219 258.570312 161.15625 C 258.570312 156.738281 254.953125 153.117188 250.53125 153.117188 C 246.113281 153.117188 242.527344 156.738281 242.527344 161.15625 C 242.527344 165.574219 246.113281 169.195312 250.53125 169.195312 Z M 286.753906 205.226562 C 286.5 202.585938 284.972656 198.460938 284.109375 196.441406 C 283.726562 195.5 283.730469 195.082031 283.835938 194.40625 C 283.863281 194.222656 283.898438 193.988281 283.917969 193.648438 C 283.933594 193.453125 283.933594 193.269531 283.9375 193.082031 L 237.679688 214.621094 L 234.527344 229.351562 C 235.113281 229.6875 235.726562 230.28125 236.445312 230.980469 C 236.984375 231.507812 237.539062 232.046875 237.957031 232.351562 C 241.308594 234.800781 242.433594 235.621094 246.171875 237.113281 C 246.414062 237.203125 246.597656 237.3125 246.730469 237.390625 C 246.859375 237.464844 246.925781 237.507812 247.09375 237.558594 L 250.511719 238.550781 C 254.378906 239.445312 258.605469 239.503906 262.347656 238.699219 L 262.503906 238.664062 C 263.929688 238.375 265.054688 238.148438 266.355469 237.671875 C 266.640625 237.558594 266.953125 237.453125 267.261719 237.347656 C 267.570312 237.242188 267.878906 237.136719 268.179688 237.015625 L 268.367188 236.949219 C 268.660156 236.839844 268.792969 236.792969 269.066406 236.664062 C 270.832031 235.910156 272.617188 234.902344 274.140625 233.820312 L 274.480469 233.570312 C 277.742188 231.179688 281.875 227.105469 283.707031 222.828125 C 283.886719 222.394531 284.105469 221.957031 284.328125 221.515625 C 284.621094 220.929688 284.902344 220.378906 285.101562 219.796875 C 285.8125 217.601562 286.300781 215.597656 286.597656 213.667969 C 287.007812 210.84375 287.050781 208.398438 286.753906 205.226562 Z M 235.972656 214.628906 L 185.039062 200.445312 L 177.6875 217.480469 L 232.820312 229.277344 C 232.828125 229.273438 232.835938 229.269531 232.84375 229.261719 Z M 231.898438 230.78125 L 177.214844 219.085938 L 174.414062 238.082031 C 175.128906 238.574219 175.8125 239.492188 176.644531 240.671875 C 176.832031 240.9375 176.996094 241.175781 177.125 241.339844 C 178.683594 243.339844 181.078125 245.496094 183.375 246.972656 L 187.394531 249.300781 C 189.761719 250.683594 193.035156 251.691406 197.132812 252.296875 C 202.988281 253.191406 209.546875 252.128906 215.609375 249.324219 C 218.191406 248.140625 220.910156 246.292969 223.277344 244.125 C 224.789062 242.75 225.992188 241.402344 227.179688 239.738281 C 228.535156 237.894531 229.546875 236.367188 230.421875 234.441406 C 230.539062 234.183594 230.632812 234.015625 230.71875 233.863281 C 230.777344 233.757812 230.832031 233.664062 230.894531 233.5 C 230.929688 233.421875 230.992188 233.230469 231.085938 232.976562 C 231.433594 232.003906 231.691406 231.296875 231.898438 230.78125 Z M 175.601562 218.621094 L 149.527344 208.578125 L 148.570312 193.089844 L 127.972656 201.511719 L 126.519531 253.832031 L 134.746094 241.46875 L 172.476562 238.15625 C 172.5625 238.082031 172.65625 238.011719 172.753906 237.945312 Z M 171.179688 239.945312 L 135.691406 243.058594 L 126.882812 256.296875 C 133.332031 262.75 139.800781 264.929688 145.609375 262.582031 C 151.015625 260.402344 154.621094 254.5625 154.632812 251.660156 L 154.632812 251.273438 L 154.867188 250.957031 C 155.609375 249.949219 155.957031 249.351562 156.164062 248.996094 C 156.695312 248.078125 157.015625 247.863281 158.074219 247.71875 C 158.449219 247.667969 159.015625 247.589844 159.976562 247.363281 C 162.617188 246.738281 165.054688 245.609375 167.019531 244.105469 C 167.183594 243.976562 167.332031 243.867188 167.472656 243.765625 C 167.652344 243.636719 167.808594 243.523438 167.980469 243.367188 C 169.335938 242.125 170.339844 241.042969 171.179688 239.945312 Z M 126.296875 201.808594 L 96.429688 202.773438 C 96.171875 203.160156 95.878906 203.46875 95.542969 203.816406 C 94.707031 204.671875 93.441406 205.96875 91.691406 209.796875 C 90.46875 212.507812 89.910156 217.003906 90.425781 220.027344 C 90.695312 221.558594 91.039062 222.675781 91.476562 224.085938 L 91.601562 224.492188 C 91.902344 225.449219 92.839844 227.121094 93.511719 228.046875 L 97.097656 232.121094 C 97.511719 232.496094 97.871094 232.753906 98.191406 232.980469 C 98.929688 233.503906 99.769531 234.097656 99.769531 235.503906 C 99.695312 239.710938 100.675781 243.597656 102.527344 246.472656 L 105.089844 249.90625 C 106.457031 251.40625 109.148438 253.515625 111.164062 254.347656 C 114.480469 255.6875 119.480469 256.757812 122.617188 255.9375 L 123.011719 255.824219 C 123.550781 255.667969 124.144531 255.503906 124.808594 255.476562 Z M 94.601562 199.261719 C 94.6875 199.320312 94.828125 199.386719 94.976562 199.460938 C 95.34375 199.648438 95.785156 199.878906 96.148438 200.207031 L 132.542969 164.628906 L 97.339844 172.511719 L 97.257812 172.617188 C 97.019531 172.925781 96.78125 173.082031 96.605469 173.199219 C 96.558594 173.226562 96.507812 173.261719 96.445312 173.304688 L 96.324219 173.382812 C 96.183594 173.460938 96.078125 173.515625 95.992188 173.558594 C 95.835938 173.636719 95.8125 173.652344 95.640625 173.789062 C 95.289062 174.074219 94.988281 174.363281 94.742188 174.644531 L 94.628906 174.777344 L 94.476562 174.871094 C 90.34375 177.476562 87.871094 181.949219 87.871094 186.835938 C 87.871094 191.019531 89.695312 194.953125 92.875 197.632812 L 93.027344 197.789062 C 93.492188 198.355469 94.035156 198.863281 94.601562 199.261719 Z M 97.453125 170.78125 L 134.382812 162.511719 L 134.339844 128.054688 C 133.105469 127.960938 131.882812 128.371094 130.941406 129.203125 L 130.519531 129.496094 L 130.261719 129.535156 C 125.269531 130.3125 121.039062 133.769531 119.226562 138.5625 L 119.121094 138.839844 L 118.898438 139.035156 C 117.507812 140.257812 116.328125 141.804688 115.386719 143.636719 C 115.296875 143.816406 115.21875 143.972656 115.160156 144.128906 L 115 144.554688 L 114.59375 144.765625 C 111.046875 146.609375 107.667969 149.375 104.820312 152.761719 C 100.035156 158.449219 97.332031 165.101562 97.453125 170.78125 Z M 97.648438 201.070312 L 126.976562 200.121094 L 148.96875 191.128906 L 168.175781 180.8125 L 135.375 164.191406 Z M 167.183594 183.238281 L 150.191406 192.363281 L 151.015625 205.617188 Z M 151.636719 207.605469 L 176.074219 217.019531 L 183.601562 199.570312 L 170.003906 182.175781 Z M 168.035156 150.910156 C 167.652344 151.308594 167.3125 151.753906 167.023438 152.230469 L 136.007812 128.640625 L 136.050781 162.179688 L 165.960938 156.65625 C 166.003906 157.222656 166.101562 157.769531 166.257812 158.292969 L 137.792969 163.550781 L 169.320312 179.519531 L 171.613281 163.429688 C 172.144531 163.566406 172.695312 163.648438 173.261719 163.667969 L 170.851562 180.554688 L 184.878906 198.503906 L 211.578125 191.46875 L 178.519531 161.742188 C 178.933594 161.371094 179.304688 160.957031 179.628906 160.503906 L 212.875 190.394531 L 221.320312 163.53125 C 221.820312 163.753906 222.351562 163.925781 222.90625 164.035156 L 214.917969 189.453125 L 244.222656 165.28125 C 244.527344 165.75 244.882812 166.183594 245.28125 166.570312 L 215.109375 191.453125 L 249.484375 199.464844 L 264.679688 152.628906 L 257.230469 157.648438 C 256.972656 157.152344 256.660156 156.691406 256.300781 156.269531 L 265.011719 150.394531 C 264.832031 143.9375 259.214844 136.53125 250.957031 131.898438 C 245.476562 128.820312 239.519531 127.34375 234.375 127.738281 L 247.859375 154.089844 C 247.335938 154.289062 246.839844 154.542969 246.375 154.851562 L 233.128906 128.953125 L 227.226562 149.632812 C 226.71875 149.425781 226.179688 149.273438 225.625 149.179688 L 231.871094 127.296875 L 231.8125 127.160156 C 230.769531 124.6875 229.035156 122.5625 226.804688 121.007812 C 222.777344 118.234375 217.574219 117.757812 213.085938 119.703125 L 222.8125 149.230469 C 222.257812 149.34375 221.734375 149.527344 221.230469 149.757812 L 211.570312 120.433594 L 179.460938 151.503906 C 179.121094 151.0625 178.738281 150.65625 178.308594 150.300781 L 210.550781 119.101562 C 209.773438 118.199219 208.898438 117.410156 207.929688 116.757812 C 203.453125 113.652344 197.714844 113.375 192.941406 116.027344 L 192.582031 116.226562 L 191.691406 116.082031 L 191.4375 115.855469 C 191.109375 115.566406 190.765625 115.296875 190.289062 114.949219 C 185.410156 111.597656 178.863281 111.652344 174.023438 115.097656 L 173.789062 115.265625 L 173.503906 115.304688 C 172.964844 115.386719 172.507812 115.472656 172.0625 115.589844 C 171.515625 115.730469 171.148438 115.832031 170.875 115.910156 L 173.6875 148.578125 C 173.625 148.574219 173.5625 148.566406 173.5 148.566406 C 172.996094 148.566406 172.503906 148.617188 172.027344 148.710938 L 169.207031 115.972656 C 164.414062 114.597656 158.664062 114.675781 152.945312 116.230469 C 145.761719 118.183594 139.707031 122.175781 136.570312 126.976562 Z M 248.421875 200.929688 L 213.84375 192.867188 L 213.683594 193.367188 L 213.058594 192.800781 L 187.746094 199.472656 L 236.695312 213.101562 Z M 240.652344 211.398438 L 276.792969 194.570312 L 250.472656 201.199219 Z M 266.660156 151.917969 L 251.296875 199.273438 L 284.058594 191.023438 C 286.496094 184.855469 284.40625 177.949219 278.9375 174.179688 C 278.46875 173.832031 277.976562 173.53125 277.351562 173.207031 L 277.144531 173.101562 L 276.835938 172.730469 C 276.773438 172.652344 276.707031 172.570312 276.628906 172.492188 L 276.0625 171.925781 L 276.375 171.1875 C 278.984375 165.035156 276.878906 157.816406 271.371094 154.019531 C 269.925781 153.011719 268.339844 152.316406 266.660156 151.917969 Z M 288.949219 214.019531 C 288.636719 216.082031 288.117188 218.214844 287.355469 220.546875 C 287.101562 221.300781 286.769531 221.953125 286.449219 222.589844 C 286.253906 222.980469 286.058594 223.363281 285.894531 223.753906 C 284.179688 227.773438 280.4375 232.15625 275.890625 235.488281 L 275.53125 235.75 C 273.867188 236.9375 271.921875 238.03125 270.039062 238.835938 C 269.726562 238.984375 269.558594 239.042969 269.1875 239.183594 L 269.03125 239.238281 C 268.726562 239.359375 268.382812 239.480469 268.03125 239.597656 C 267.753906 239.695312 267.46875 239.792969 267.191406 239.902344 C 265.703125 240.445312 264.441406 240.699219 262.976562 241 L 262.835938 241.023438 C 258.769531 241.902344 254.175781 241.84375 249.910156 240.851562 L 246.402344 239.835938 C 245.941406 239.691406 245.695312 239.542969 245.515625 239.4375 C 245.457031 239.402344 245.402344 239.363281 245.316406 239.332031 C 241.273438 237.71875 239.894531 236.710938 236.558594 234.277344 C 236.003906 233.871094 235.382812 233.269531 234.785156 232.683594 C 234.554688 232.460938 234.265625 232.179688 234.003906 231.933594 C 233.746094 232.597656 233.457031 233.414062 233.328125 233.777344 C 233.21875 234.074219 233.140625 234.292969 233.109375 234.375 C 232.996094 234.667969 232.898438 234.839844 232.789062 235.035156 C 232.730469 235.136719 232.667969 235.246094 232.589844 235.421875 C 231.625 237.539062 230.542969 239.175781 229.109375 241.132812 C 227.839844 242.90625 226.496094 244.417969 224.878906 245.882812 C 222.34375 248.210938 219.402344 250.203125 216.605469 251.484375 C 210.132812 254.484375 203.089844 255.609375 196.78125 254.648438 C 192.386719 254 188.824219 252.890625 186.199219 251.359375 L 182.132812 249.003906 C 179.582031 247.363281 176.960938 245 175.25 242.804688 C 175.105469 242.617188 174.914062 242.34375 174.695312 242.039062 C 174.460938 241.703125 174.03125 241.089844 173.644531 240.621094 L 173.539062 240.765625 C 172.519531 242.207031 171.300781 243.550781 169.59375 245.117188 C 169.335938 245.355469 169.097656 245.527344 168.867188 245.695312 C 168.746094 245.78125 168.617188 245.875 168.472656 245.988281 C 166.238281 247.703125 163.488281 248.976562 160.523438 249.679688 C 159.449219 249.929688 158.789062 250.023438 158.394531 250.074219 C 158.351562 250.082031 158.3125 250.085938 158.277344 250.09375 C 158.261719 250.121094 158.242188 250.152344 158.222656 250.1875 C 158.011719 250.550781 157.671875 251.140625 156.996094 252.074219 C 156.710938 255.855469 152.761719 262.261719 146.5 264.789062 C 144.921875 265.425781 143.039062 265.890625 140.890625 265.890625 C 136.671875 265.890625 131.433594 264.085938 125.539062 258.316406 L 124.695312 259.585938 L 124.742188 257.882812 C 124.414062 257.925781 124.070312 258 123.675781 258.113281 C 123.527344 258.15625 123.378906 258.199219 123.226562 258.238281 C 119.542969 259.203125 114.0625 258.085938 110.265625 256.550781 C 107.882812 255.570312 104.847656 253.195312 103.285156 251.460938 L 103.214844 251.375 L 100.574219 247.828125 C 98.421875 244.496094 97.308594 240.132812 97.390625 235.484375 C 97.390625 235.398438 97.378906 235.363281 97.378906 235.363281 C 97.332031 235.285156 97.03125 235.074219 96.816406 234.921875 C 96.445312 234.660156 95.984375 234.332031 95.441406 233.832031 L 95.355469 233.746094 L 91.625 229.496094 C 90.828125 228.40625 89.722656 226.453125 89.332031 225.199219 L 89.207031 224.792969 C 88.761719 223.359375 88.378906 222.117188 88.082031 220.433594 C 87.488281 216.945312 88.109375 211.949219 89.523438 208.8125 C 91.453125 204.601562 92.886719 203.128906 93.839844 202.15625 C 93.984375 202.003906 94.113281 201.871094 94.21875 201.75 C 94.105469 201.6875 93.984375 201.625 93.898438 201.582031 C 93.648438 201.457031 93.417969 201.335938 93.246094 201.21875 C 92.511719 200.699219 91.847656 200.085938 91.257812 199.382812 C 87.59375 196.253906 85.496094 191.6875 85.496094 186.835938 C 85.496094 181.1875 88.320312 176.007812 93.066406 172.949219 C 93.375 172.609375 93.734375 172.269531 94.140625 171.941406 C 94.484375 171.664062 94.660156 171.566406 94.910156 171.4375 C 94.960938 171.414062 95.019531 171.382812 95.089844 171.34375 C 94.785156 164.980469 97.710938 157.511719 103 151.226562 C 105.949219 147.726562 109.441406 144.835938 113.121094 142.855469 C 113.164062 142.761719 113.210938 142.664062 113.265625 142.558594 C 114.296875 140.546875 115.585938 138.828125 117.105469 137.445312 C 119.242188 132.097656 123.976562 128.222656 129.578125 127.238281 C 130.988281 126.089844 132.769531 125.539062 134.566406 125.679688 C 138.019531 120.398438 144.589844 116.039062 152.320312 113.933594 C 158.488281 112.257812 164.734375 112.175781 169.960938 113.699219 C 170.253906 113.613281 170.707031 113.480469 171.46875 113.285156 C 171.90625 113.171875 172.371094 113.074219 172.878906 112.996094 C 178.507812 109.136719 186.015625 109.128906 191.660156 113.003906 C 191.894531 113.175781 192.164062 113.371094 192.445312 113.597656 C 197.878906 110.882812 204.261719 111.316406 209.273438 114.792969 C 210.367188 115.53125 211.375 116.421875 212.273438 117.441406 L 212.324219 117.390625 L 212.335938 117.429688 C 217.535156 115.261719 223.511719 115.851562 228.160156 119.050781 C 230.515625 120.691406 232.390625 122.875 233.628906 125.40625 C 239.359375 124.824219 246.042969 126.410156 252.121094 129.820312 C 260.632812 134.597656 266.382812 141.914062 267.273438 148.871094 L 267.753906 148.546875 L 267.402344 149.632812 C 269.300781 150.109375 271.089844 150.921875 272.726562 152.0625 C 278.917969 156.332031 281.425781 164.320312 278.875 171.324219 C 279.425781 171.628906 279.890625 171.925781 280.320312 172.242188 C 286.648438 176.605469 289.101562 184.628906 286.3125 191.8125 C 286.34375 192.464844 286.339844 193.117188 286.292969 193.792969 C 286.269531 194.226562 286.222656 194.527344 286.1875 194.765625 C 286.136719 195.109375 286.136719 195.109375 286.304688 195.523438 C 287.433594 198.171875 288.859375 202.257812 289.125 205 C 289.441406 208.375 289.390625 210.988281 288.949219 214.019531 Z M 231.605469 158.710938 L 243.019531 160.695312 C 243.054688 160.128906 243.144531 159.578125 243.296875 159.050781 L 231.882812 157.070312 C 231.851562 157.636719 231.757812 158.1875 231.605469 158.710938 Z M 180.980469 157.019531 L 216.839844 157.371094 C 216.8125 157.117188 216.800781 156.867188 216.800781 156.609375 C 216.800781 156.304688 216.824219 156 216.863281 155.703125 L 181.003906 155.351562 C 181.027344 155.601562 181.042969 155.855469 181.042969 156.109375 C 181.042969 156.417969 181.019531 156.71875 180.980469 157.019531 Z M 224.371094 164.578125 C 228.75 164.578125 232.308594 161.019531 232.308594 156.605469 C 232.308594 152.222656 228.75 148.667969 224.371094 148.667969 C 219.960938 148.667969 216.402344 152.222656 216.402344 156.605469 C 216.402344 161.019531 219.960938 164.578125 224.371094 164.578125 Z M 135.21875 168.914062 C 138.382812 168.914062 140.976562 166.34375 140.976562 163.179688 C 140.976562 160.011719 138.382812 157.417969 135.21875 157.417969 C 132.054688 157.417969 129.460938 160.011719 129.460938 163.179688 C 129.460938 166.34375 132.054688 168.914062 135.21875 168.914062 Z M 135.21875 170.722656 C 139.382812 170.722656 142.785156 167.34375 142.785156 163.179688 C 142.785156 159.015625 139.382812 155.609375 135.21875 155.609375 C 131.054688 155.609375 127.675781 159.015625 127.675781 163.179688 C 127.675781 167.34375 131.054688 170.722656 135.21875 170.722656 Z M 173.503906 163.96875 C 169.183594 163.96875 165.644531 160.425781 165.644531 156.105469 C 165.644531 151.785156 169.183594 148.277344 173.503906 148.277344 C 177.824219 148.277344 181.332031 151.785156 181.332031 156.105469 C 181.332031 160.425781 177.824219 163.96875 173.503906 163.96875 " fill-opacity="1" fill-rule="nonzero"/></g></svg>