<svg xmlns="http://www.w3.org/2000/svg" xmlns:xlink="http://www.w3.org/1999/xlink" width="500" zoomAndPan="magnify" viewBox="0 0 375 374.999991" height="500" preserveAspectRatio="xMidYMid meet" version="1.0"><defs><clipPath id="id1"><path d="M 37.5 150 L 322 150 L 322 368.4375 L 37.5 368.4375 Z M 37.5 150 " clip-rule="nonzero"/></clipPath><clipPath id="id2"><path d="M 155 6.1875 L 311 6.1875 L 311 162 L 155 162 Z M 155 6.1875 " clip-rule="nonzero"/></clipPath></defs><path fill="#ff0000" d="M 223.28125 332.261719 C 223.246094 332.289062 223.210938 332.316406 223.179688 332.34375 C 222.660156 332.777344 222.148438 333.222656 221.628906 333.644531 C 222.1875 333.191406 222.730469 332.722656 223.28125 332.261719 " fill-opacity="1" fill-rule="nonzero"/><path fill="#ff0000" d="M 272.203125 269.253906 C 272.191406 269.28125 272.175781 269.3125 272.160156 269.339844 C 272.132812 269.386719 272.117188 269.429688 272.085938 269.480469 C 272.128906 269.402344 272.164062 269.332031 272.203125 269.253906 " fill-opacity="1" fill-rule="nonzero"/><path fill="#ff0000" d="M 210.335938 341.804688 C 210.203125 341.886719 210.066406 341.960938 209.9375 342.042969 C 209.867188 342.085938 209.800781 342.125 209.734375 342.167969 C 209.417969 342.363281 209.105469 342.542969 208.789062 342.734375 C 209.304688 342.421875 209.828125 342.125 210.335938 341.804688 " fill-opacity="1" fill-rule="nonzero"/><path fill="#ff0000" d="M 229.664062 326.5625 C 229.652344 326.574219 229.640625 326.585938 229.628906 326.59375 C 229.347656 326.863281 229.0625 327.140625 228.777344 327.40625 C 229.078125 327.128906 229.371094 326.84375 229.664062 326.5625 " fill-opacity="1" fill-rule="nonzero"/><path fill="#ff0000" d="M 226.433594 329.53125 C 226.425781 329.535156 226.421875 329.542969 226.414062 329.546875 C 226.019531 329.894531 225.625 330.261719 225.230469 330.609375 C 225.636719 330.253906 226.035156 329.886719 226.433594 329.53125 " fill-opacity="1" fill-rule="nonzero"/><path fill="#68b4e7" d="M 106.785156 131.136719 C 121.058594 131.136719 132.667969 142.742188 132.667969 157.015625 C 132.667969 171.289062 121.058594 182.902344 106.785156 182.902344 C 92.511719 182.902344 80.902344 171.289062 80.902344 157.015625 C 80.902344 142.742188 92.511719 131.136719 106.785156 131.136719 Z M 76.679688 169.488281 C 78.355469 173.53125 77.4375 178.144531 74.34375 181.238281 L 68.40625 187.175781 L 76.632812 195.402344 L 82.570312 189.464844 C 85.664062 186.367188 90.277344 185.453125 94.316406 187.128906 C 98.355469 188.804688 100.96875 192.710938 100.96875 197.085938 L 100.96875 205.484375 L 112.601562 205.484375 L 112.601562 197.085938 C 112.601562 192.710938 115.214844 188.804688 119.253906 187.128906 C 123.296875 185.449219 127.90625 186.367188 131 189.460938 L 136.9375 195.402344 L 145.164062 187.175781 L 139.226562 181.234375 C 136.132812 178.144531 135.214844 173.53125 136.890625 169.488281 C 138.5625 165.449219 142.472656 162.835938 146.84375 162.835938 L 155.242188 162.835938 L 155.242188 151.203125 L 146.84375 151.203125 C 142.472656 151.203125 138.5625 148.589844 136.890625 144.542969 C 135.214844 140.5 136.132812 135.890625 139.226562 132.796875 L 145.164062 126.863281 L 136.9375 118.632812 L 131 124.570312 C 127.90625 127.667969 123.292969 128.585938 119.253906 126.910156 C 115.214844 125.230469 112.601562 121.324219 112.601562 116.949219 L 112.601562 108.554688 L 100.96875 108.554688 L 100.96875 116.949219 C 100.96875 121.324219 98.355469 125.230469 94.316406 126.910156 C 90.273438 128.585938 85.664062 127.667969 82.570312 124.574219 L 76.632812 118.632812 L 68.40625 126.863281 L 74.34375 132.800781 C 77.4375 135.890625 78.355469 140.5 76.679688 144.542969 C 75.003906 148.589844 71.097656 151.203125 66.722656 151.203125 L 58.328125 151.203125 L 58.328125 162.835938 L 66.722656 162.835938 C 71.097656 162.835938 75.003906 165.449219 76.679688 169.488281 " fill-opacity="1" fill-rule="nonzero"/><path fill="#ffffff" d="M 106.785156 168.382812 C 113.050781 168.382812 118.148438 163.285156 118.148438 157.015625 C 118.148438 150.753906 113.050781 145.652344 106.785156 145.652344 C 100.519531 145.652344 95.421875 150.753906 95.421875 157.015625 C 95.421875 163.285156 100.519531 168.382812 106.785156 168.382812 " fill-opacity="1" fill-rule="nonzero"/><path fill="#ff0000" d="M 137.980469 58.96875 C 139.113281 58.546875 140.234375 58.144531 141.335938 57.773438 C 141.515625 57.714844 141.691406 57.644531 141.867188 57.585938 C 140.585938 58.003906 139.285156 58.484375 137.980469 58.96875 " fill-opacity="1" fill-rule="nonzero"/><path fill="#ff0000" d="M 132.632812 61.136719 C 132.84375 61.050781 133.042969 60.96875 133.25 60.875 C 132.535156 61.183594 131.820312 61.457031 131.101562 61.789062 C 131.601562 61.5625 132.125 61.359375 132.632812 61.136719 " fill-opacity="1" fill-rule="nonzero"/><path fill="#ff0000" d="M 110.539062 74.710938 C 111.03125 74.300781 111.527344 73.90625 112.027344 73.507812 C 112.117188 73.4375 112.199219 73.355469 112.289062 73.28125 C 111.703125 73.75 111.117188 74.226562 110.539062 74.710938 " fill-opacity="1" fill-rule="nonzero"/><path fill="#ff0000" d="M 118.820312 68.589844 C 119.980469 67.832031 121.144531 67.152344 122.308594 66.464844 C 121.015625 67.230469 119.714844 67.976562 118.429688 68.828125 C 118.554688 68.746094 118.691406 68.671875 118.820312 68.589844 " fill-opacity="1" fill-rule="nonzero"/><path fill="#ffffff" d="M 232.847656 107.449219 C 245.882812 107.449219 256.488281 96.839844 256.488281 83.808594 C 256.488281 70.769531 245.882812 60.160156 232.847656 60.160156 C 219.816406 60.160156 209.210938 70.769531 209.210938 83.808594 C 209.210938 96.839844 219.816406 107.449219 232.847656 107.449219 " fill-opacity="1" fill-rule="nonzero"/><path fill="#68b4e7" d="M 232.851562 45.644531 C 253.890625 45.644531 271.007812 62.761719 271.007812 83.804688 C 271.007812 104.847656 253.890625 121.96875 232.851562 121.96875 C 211.808594 121.96875 194.695312 104.847656 194.695312 83.804688 C 194.695312 62.761719 211.808594 45.644531 232.851562 45.644531 Z M 193.078125 100.28125 C 194.894531 104.667969 193.898438 109.675781 190.539062 113.035156 L 181.695312 121.882812 L 194.78125 134.964844 L 203.625 126.121094 C 206.976562 122.761719 211.984375 121.761719 216.375 123.585938 C 220.765625 125.398438 223.597656 129.644531 223.597656 134.398438 L 223.597656 146.90625 L 242.097656 146.90625 L 242.097656 134.398438 C 242.097656 129.644531 244.9375 125.402344 249.324219 123.585938 C 253.714844 121.761719 258.71875 122.761719 262.078125 126.121094 L 270.921875 134.964844 L 284.003906 121.882812 L 275.160156 113.035156 C 271.800781 109.675781 270.804688 104.667969 272.625 100.28125 C 274.441406 95.894531 278.683594 93.058594 283.433594 93.058594 L 295.941406 93.058594 L 295.941406 74.550781 L 283.433594 74.550781 C 278.683594 74.550781 274.441406 71.714844 272.625 67.332031 C 270.804688 62.941406 271.800781 57.933594 275.15625 54.574219 L 284 45.730469 L 270.921875 32.644531 L 262.078125 41.488281 C 258.71875 44.847656 253.714844 45.84375 249.324219 44.027344 C 244.9375 42.207031 242.097656 37.964844 242.097656 33.214844 L 242.097656 20.707031 L 223.597656 20.707031 L 223.597656 33.214844 C 223.597656 37.964844 220.765625 42.207031 216.378906 44.027344 C 211.992188 45.84375 206.984375 44.847656 203.625 41.492188 L 194.78125 32.644531 L 181.695312 45.730469 L 190.539062 54.574219 C 193.898438 57.933594 194.894531 62.941406 193.078125 67.328125 C 191.261719 71.714844 187.015625 74.550781 182.265625 74.550781 L 169.757812 74.550781 L 169.757812 93.058594 L 182.265625 93.058594 C 187.015625 93.058594 191.261719 95.894531 193.078125 100.28125 " fill-opacity="1" fill-rule="nonzero"/><path fill="#ff0000" d="M 113.164062 72.59375 C 114.640625 71.460938 116.128906 70.40625 117.621094 69.398438 C 117.777344 69.292969 117.917969 69.175781 118.070312 69.074219 C 116.421875 70.175781 114.785156 71.34375 113.164062 72.59375 " fill-opacity="1" fill-rule="nonzero"/><path fill="#ff0000" d="M 112.574219 73.050781 C 112.628906 73.007812 112.6875 72.972656 112.746094 72.925781 C 112.855469 72.839844 112.964844 72.746094 113.074219 72.660156 C 112.90625 72.792969 112.742188 72.917969 112.574219 73.050781 " fill-opacity="1" fill-rule="nonzero"/><path fill="#ff0000" d="M 143.039062 57.21875 C 144.164062 56.863281 145.238281 56.558594 146.320312 56.257812 C 145.054688 56.613281 143.789062 56.960938 142.480469 57.382812 C 142.664062 57.320312 142.855469 57.277344 143.039062 57.21875 " fill-opacity="1" fill-rule="nonzero"/><path fill="#1368a9" d="M 227.246094 328.800781 C 227.09375 328.9375 226.9375 329.078125 226.78125 329.21875 C 226.765625 329.230469 226.75 329.242188 226.738281 329.257812 C 226.910156 329.101562 227.078125 328.953125 227.246094 328.800781 " fill-opacity="1" fill-rule="nonzero"/><path fill="#1368a9" d="M 242.410156 313.160156 C 242.667969 312.859375 242.90625 312.5625 243.160156 312.265625 C 242.9375 312.523438 242.699219 312.78125 242.480469 313.046875 C 242.425781 313.105469 242.375 313.164062 242.324219 313.222656 C 241.261719 314.457031 240.203125 315.691406 239.09375 316.914062 C 240.207031 315.691406 241.308594 314.441406 242.410156 313.160156 " fill-opacity="1" fill-rule="nonzero"/><path fill="#1368a9" d="M 226.78125 329.21875 C 226.664062 329.320312 226.550781 329.425781 226.433594 329.53125 C 226.535156 329.4375 226.636719 329.347656 226.738281 329.257812 C 226.75 329.242188 226.765625 329.230469 226.78125 329.21875 " fill-opacity="1" fill-rule="nonzero"/><g clip-path="url(#id1)"><path fill="#1368a9" d="M 245.375 309.625 C 245.511719 309.457031 245.640625 309.289062 245.78125 309.121094 C 245.640625 309.289062 245.511719 309.457031 245.375 309.625 Z M 235.71875 320.546875 C 236.519531 319.710938 237.296875 318.867188 238.078125 318.019531 C 237.296875 318.867188 236.519531 319.710938 235.71875 320.546875 Z M 232.277344 324.050781 C 233.019531 323.320312 233.738281 322.582031 234.460938 321.839844 C 233.738281 322.582031 233.019531 323.320312 232.277344 324.050781 Z M 217.960938 336.519531 C 218.480469 336.128906 218.984375 335.722656 219.5 335.324219 C 218.984375 335.722656 218.480469 336.128906 217.960938 336.519531 Z M 214.226562 339.230469 C 214.164062 339.273438 214.101562 339.308594 214.039062 339.355469 C 214.136719 339.289062 214.230469 339.222656 214.324219 339.15625 C 214.289062 339.179688 214.257812 339.207031 214.226562 339.230469 Z M 204.5 345.191406 C 205.132812 344.847656 205.777344 344.515625 206.40625 344.160156 C 205.777344 344.515625 205.132812 344.847656 204.5 345.191406 Z M 301.035156 176.527344 C 301.035156 169.972656 300.800781 163.628906 300.324219 157.503906 C 299.898438 152.0625 293.851562 149.023438 289.230469 151.925781 L 289.21875 151.929688 C 286.957031 153.351562 285.632812 155.902344 285.84375 158.5625 C 286.292969 164.289062 286.519531 170.230469 286.519531 176.382812 L 286.519531 176.503906 C 286.519531 181.921875 289.007812 186.941406 293.34375 190.300781 C 302.570312 197.414062 307.632812 210.710938 306.574219 224.960938 C 305.332031 241.597656 295.75 255.746094 283.285156 259.375 C 278.828125 260.660156 275.03125 263.8125 272.851562 268.027344 C 272.785156 268.15625 272.695312 268.324219 272.617188 268.464844 C 272.691406 268.328125 272.777344 268.171875 272.84375 268.042969 C 272.636719 268.4375 272.402344 268.882812 272.160156 269.339844 C 272.175781 269.3125 272.191406 269.28125 272.207031 269.253906 C 272.164062 269.332031 272.128906 269.402344 272.085938 269.480469 C 272.117188 269.429688 272.132812 269.386719 272.160156 269.339844 C 272.039062 269.570312 271.898438 269.828125 271.765625 270.078125 C 271.667969 270.261719 271.570312 270.445312 271.464844 270.636719 C 271.441406 270.675781 271.425781 270.714844 271.402344 270.753906 C 271.335938 270.875 271.277344 270.984375 271.214844 271.105469 C 271.253906 271.03125 271.289062 270.96875 271.320312 270.902344 C 271.164062 271.195312 271 271.492188 270.828125 271.804688 C 270.71875 272.003906 270.609375 272.203125 270.496094 272.414062 C 270.253906 272.847656 270.003906 273.296875 269.738281 273.765625 C 269.660156 273.910156 269.574219 274.054688 269.496094 274.203125 C 269.183594 274.75 268.867188 275.3125 268.527344 275.902344 C 268.5 275.945312 268.472656 275.996094 268.445312 276.039062 C 263.152344 285.230469 254.242188 299.328125 242.480469 313.042969 C 242.699219 312.78125 242.941406 312.523438 243.160156 312.265625 C 242.90625 312.5625 242.667969 312.859375 242.410156 313.15625 C 241.308594 314.4375 240.207031 315.691406 239.09375 316.914062 C 240.203125 315.691406 241.261719 314.457031 242.324219 313.222656 C 238.417969 317.769531 234.199219 322.273438 229.691406 326.535156 C 230.089844 326.15625 230.484375 325.78125 230.882812 325.402344 C 230.484375 325.785156 230.082031 326.167969 229.679688 326.546875 C 229.679688 326.554688 229.667969 326.554688 229.664062 326.5625 C 229.371094 326.84375 229.078125 327.128906 228.78125 327.40625 C 229.0625 327.140625 229.347656 326.863281 229.632812 326.59375 C 228.695312 327.476562 227.742188 328.351562 226.78125 329.21875 C 226.9375 329.078125 227.09375 328.9375 227.25 328.796875 C 227.078125 328.953125 226.910156 329.101562 226.738281 329.257812 C 226.636719 329.347656 226.539062 329.4375 226.433594 329.53125 C 226.035156 329.886719 225.636719 330.253906 225.234375 330.609375 C 225.625 330.261719 226.019531 329.894531 226.414062 329.546875 C 225.484375 330.375 224.542969 331.195312 223.589844 331.996094 C 223.554688 332.03125 223.519531 332.058594 223.484375 332.085938 C 223.382812 332.171875 223.285156 332.257812 223.179688 332.34375 C 223.214844 332.316406 223.246094 332.289062 223.28125 332.261719 C 222.730469 332.722656 222.1875 333.191406 221.628906 333.644531 C 222.148438 333.222656 222.660156 332.777344 223.179688 332.34375 C 222.28125 333.101562 221.367188 333.84375 220.445312 334.578125 C 220.230469 334.742188 220.019531 334.910156 219.804688 335.078125 C 218.894531 335.789062 217.976562 336.496094 217.046875 337.183594 C 216.796875 337.367188 216.542969 337.546875 216.289062 337.734375 C 215.367188 338.402344 214.441406 339.066406 213.496094 339.710938 C 213.289062 339.851562 213.082031 339.984375 212.875 340.121094 C 211.902344 340.777344 210.925781 341.425781 209.9375 342.042969 C 210.070312 341.960938 210.203125 341.886719 210.335938 341.804688 C 209.828125 342.125 209.304688 342.421875 208.792969 342.734375 C 209.105469 342.542969 209.417969 342.363281 209.734375 342.167969 C 207.898438 343.308594 206.023438 344.375 204.128906 345.386719 C 203.5625 345.691406 203.003906 346 202.433594 346.289062 C 201.851562 346.582031 201.261719 346.859375 200.671875 347.136719 C 201.261719 346.863281 201.84375 346.585938 202.421875 346.292969 C 201.84375 346.585938 201.261719 346.863281 200.671875 347.136719 C 200.574219 347.183594 200.476562 347.230469 200.378906 347.277344 C 193.6875 350.453125 186.667969 352.757812 179.335938 353.796875 C 129.148438 346.679688 93.015625 281.175781 86.253906 268.066406 C 84.078125 263.832031 80.261719 260.679688 75.804688 259.375 C 63.339844 255.746094 53.78125 241.597656 52.511719 224.960938 C 52.121094 219.773438 52.550781 214.714844 53.703125 210.035156 C 53.722656 209.941406 53.726562 209.847656 53.746094 209.753906 C 53.726562 209.847656 53.722656 209.941406 53.703125 210.035156 C 53.796875 209.648438 53.859375 209.253906 53.890625 208.863281 C 53.890625 208.84375 53.886719 208.828125 53.890625 208.804688 C 53.941406 208.054688 53.878906 207.300781 53.695312 206.566406 C 53.511719 205.820312 53.207031 205.113281 52.800781 204.460938 C 52.613281 204.164062 52.398438 203.886719 52.171875 203.617188 C 52.148438 203.59375 52.136719 203.566406 52.113281 203.542969 C 51.894531 203.292969 51.648438 203.066406 51.390625 202.84375 C 51.351562 202.808594 51.316406 202.769531 51.273438 202.730469 C 51.03125 202.53125 50.761719 202.359375 50.492188 202.1875 C 50.425781 202.144531 50.367188 202.09375 50.300781 202.054688 C 46.105469 199.628906 40.769531 201.925781 39.609375 206.632812 C 38.09375 212.789062 37.527344 219.363281 38.039062 226.0625 C 39.757812 248.960938 53.300781 267.941406 71.738281 273.3125 C 72.402344 273.5 73.003906 274.019531 73.355469 274.703125 C 83.726562 294.84375 121.992188 361.140625 178.421875 368.339844 L 179.335938 368.441406 L 180.25 368.339844 C 236.785156 361.140625 275.277344 294.84375 285.730469 274.703125 C 286.085938 274.019531 286.664062 273.519531 287.328125 273.3125 C 305.785156 267.960938 319.332031 248.960938 321.050781 226.0625 C 322.484375 207 315.265625 188.890625 302.222656 178.808594 C 301.472656 178.226562 301.035156 177.398438 301.035156 176.527344 " fill-opacity="1" fill-rule="nonzero"/></g><path fill="#1368a9" d="M 229.691406 326.535156 C 229.683594 326.542969 229.675781 326.554688 229.664062 326.5625 C 229.667969 326.554688 229.675781 326.554688 229.679688 326.546875 C 229.683594 326.542969 229.6875 326.539062 229.691406 326.535156 " fill-opacity="1" fill-rule="nonzero"/><path fill="#1368a9" d="M 271.40625 270.742188 C 271.375 270.796875 271.351562 270.851562 271.320312 270.902344 C 271.347656 270.855469 271.375 270.800781 271.402344 270.753906 C 271.402344 270.75 271.40625 270.746094 271.40625 270.742188 " fill-opacity="1" fill-rule="nonzero"/><path fill="#1368a9" d="M 214.226562 339.230469 C 214.257812 339.207031 214.289062 339.179688 214.324219 339.15625 C 214.230469 339.222656 214.132812 339.289062 214.039062 339.355469 C 214.101562 339.308594 214.160156 339.273438 214.226562 339.230469 " fill-opacity="1" fill-rule="nonzero"/><path fill="#1368a9" d="M 271.402344 270.753906 C 271.375 270.800781 271.347656 270.855469 271.320312 270.902344 C 271.289062 270.96875 271.253906 271.03125 271.214844 271.105469 C 271.277344 270.984375 271.335938 270.875 271.402344 270.753906 " fill-opacity="1" fill-rule="nonzero"/><path fill="#1368a9" d="M 242.324219 313.222656 C 242.375 313.164062 242.425781 313.105469 242.480469 313.046875 C 242.425781 313.105469 242.375 313.164062 242.324219 313.222656 " fill-opacity="1" fill-rule="nonzero"/><path fill="#1368a9" d="M 230.882812 325.402344 C 230.484375 325.78125 230.089844 326.15625 229.691406 326.535156 C 229.6875 326.539062 229.683594 326.542969 229.679688 326.546875 C 230.082031 326.167969 230.480469 325.785156 230.882812 325.402344 " fill-opacity="1" fill-rule="nonzero"/><path fill="#1368a9" d="M 123.578125 65.695312 C 123.578125 65.691406 123.582031 65.691406 123.585938 65.691406 C 123.8125 65.558594 124.042969 65.402344 124.269531 65.273438 C 124.035156 65.402344 123.8125 65.558594 123.578125 65.695312 " fill-opacity="1" fill-rule="nonzero"/><path fill="#1368a9" d="M 122.3125 66.464844 C 122.738281 66.214844 123.160156 65.929688 123.585938 65.6875 C 123.582031 65.6875 123.578125 65.691406 123.578125 65.691406 C 123.152344 65.933594 122.734375 66.214844 122.3125 66.464844 " fill-opacity="1" fill-rule="nonzero"/><path fill="#1368a9" d="M 133.25 60.875 C 133.949219 60.578125 134.648438 60.269531 135.34375 59.988281 C 135.332031 59.996094 135.320312 59.996094 135.3125 60 C 134.628906 60.28125 133.9375 60.578125 133.25 60.875 " fill-opacity="1" fill-rule="nonzero"/><path fill="#1368a9" d="M 129.925781 62.382812 C 129.933594 62.375 129.941406 62.375 129.949219 62.371094 C 130.304688 62.203125 130.664062 61.988281 131.019531 61.828125 C 130.644531 62 130.296875 62.207031 129.925781 62.382812 " fill-opacity="1" fill-rule="nonzero"/><path fill="#1368a9" d="M 135.3125 60.003906 C 135.320312 60 135.332031 59.996094 135.339844 59.992188 C 135.613281 59.882812 135.890625 59.75 136.164062 59.644531 C 135.878906 59.757812 135.601562 59.890625 135.3125 60.003906 " fill-opacity="1" fill-rule="nonzero"/><path fill="#1368a9" d="M 125.214844 64.769531 C 126.792969 63.90625 128.371094 63.121094 129.949219 62.371094 C 129.945312 62.371094 129.933594 62.375 129.925781 62.378906 C 128.363281 63.121094 126.792969 63.910156 125.214844 64.769531 " fill-opacity="1" fill-rule="nonzero"/><path fill="#1368a9" d="M 124.617188 65.074219 C 124.816406 64.964844 125.011719 64.878906 125.214844 64.769531 C 125.019531 64.875 124.8125 64.964844 124.617188 65.074219 " fill-opacity="1" fill-rule="nonzero"/><path fill="#1368a9" d="M 148.296875 55.6875 C 148.375 55.671875 148.441406 55.660156 148.515625 55.640625 C 148.523438 55.636719 148.53125 55.632812 148.539062 55.632812 C 148.460938 55.652344 148.378906 55.667969 148.296875 55.6875 " fill-opacity="1" fill-rule="nonzero"/><path fill="#1368a9" d="M 107.753906 77.140625 C 108.5 76.464844 109.246094 75.789062 110.003906 75.144531 C 109.246094 75.789062 108.5 76.464844 107.753906 77.140625 Z M 151.28125 39.988281 C 135.234375 43.261719 114.945312 50.644531 97.25 67.046875 C 95.675781 68.507812 94.148438 70.011719 92.664062 71.566406 C 88.933594 75.472656 90.535156 81.921875 95.6875 83.542969 L 95.726562 83.558594 C 98.351562 84.382812 101.222656 83.648438 103.117188 81.65625 C 104.363281 80.339844 105.652344 79.066406 106.976562 77.832031 C 107.035156 77.777344 107.097656 77.726562 107.15625 77.671875 C 108.722656 76.222656 110.351562 74.84375 112.027344 73.507812 C 111.527344 73.902344 111.035156 74.300781 110.539062 74.710938 C 111.121094 74.226562 111.703125 73.746094 112.289062 73.28125 C 112.199219 73.351562 112.117188 73.4375 112.027344 73.507812 C 112.265625 73.316406 112.503906 73.113281 112.746094 72.929688 C 112.6875 72.972656 112.628906 73.007812 112.574219 73.050781 C 112.738281 72.917969 112.90625 72.792969 113.074219 72.660156 C 112.964844 72.746094 112.855469 72.84375 112.746094 72.929688 C 114.320312 71.695312 115.953125 70.527344 117.621094 69.398438 C 116.128906 70.40625 114.640625 71.460938 113.167969 72.59375 C 114.785156 71.34375 116.421875 70.175781 118.070312 69.074219 C 117.917969 69.175781 117.777344 69.292969 117.621094 69.398438 C 118.023438 69.128906 118.421875 68.851562 118.820312 68.59375 C 118.691406 68.671875 118.554688 68.746094 118.429688 68.828125 C 119.714844 67.976562 121.015625 67.230469 122.308594 66.464844 C 122.730469 66.21875 123.152344 65.9375 123.578125 65.695312 C 123.8125 65.558594 124.035156 65.40625 124.269531 65.273438 C 124.042969 65.402344 123.8125 65.558594 123.585938 65.6875 C 124.125 65.378906 124.671875 65.066406 125.214844 64.769531 C 125.011719 64.878906 124.816406 64.964844 124.617188 65.074219 C 124.8125 64.964844 125.019531 64.871094 125.214844 64.769531 C 126.792969 63.910156 128.363281 63.121094 129.925781 62.378906 C 130.300781 62.203125 130.644531 62 131.019531 61.824219 C 130.664062 61.988281 130.304688 62.199219 129.949219 62.367188 C 130.851562 61.941406 131.746094 61.527344 132.632812 61.136719 C 132.125 61.359375 131.601562 61.558594 131.101562 61.789062 C 131.820312 61.457031 132.535156 61.183594 133.25 60.875 C 133.9375 60.578125 134.628906 60.277344 135.316406 60 C 135.601562 59.886719 135.878906 59.753906 136.167969 59.640625 C 135.890625 59.75 135.613281 59.878906 135.34375 59.988281 C 136.074219 59.695312 136.796875 59.40625 137.511719 59.136719 C 137.253906 59.234375 137 59.308594 136.738281 59.410156 C 136.996094 59.3125 137.261719 59.230469 137.519531 59.132812 C 137.675781 59.074219 137.824219 59.027344 137.980469 58.96875 C 139.285156 58.484375 140.585938 58.003906 141.867188 57.585938 C 141.691406 57.644531 141.515625 57.714844 141.335938 57.773438 C 141.910156 57.582031 142.476562 57.394531 143.039062 57.21875 C 142.855469 57.277344 142.664062 57.320312 142.480469 57.378906 C 143.789062 56.960938 145.054688 56.613281 146.324219 56.257812 C 146.722656 56.144531 147.144531 56.003906 147.535156 55.898438 C 147.636719 55.875 147.730469 55.84375 147.828125 55.816406 C 147.742188 55.839844 147.648438 55.867188 147.5625 55.894531 C 147.878906 55.808594 148.203125 55.722656 148.515625 55.640625 C 148.441406 55.660156 148.375 55.667969 148.296875 55.6875 C 148.378906 55.667969 148.460938 55.652344 148.542969 55.632812 C 150.394531 55.152344 152.265625 54.710938 154.160156 54.320312 C 152.265625 54.710938 150.394531 55.152344 148.542969 55.632812 C 148.53125 55.632812 148.523438 55.636719 148.515625 55.640625 C 150.476562 55.128906 152.398438 54.679688 154.242188 54.300781 C 158.207031 53.496094 160.691406 49.539062 159.789062 45.597656 L 159.761719 45.484375 C 158.886719 41.65625 155.125 39.207031 151.28125 39.988281 " fill-opacity="1" fill-rule="nonzero"/><path fill="#1368a9" d="M 147.535156 55.902344 C 147.546875 55.902344 147.554688 55.894531 147.5625 55.894531 C 147.648438 55.871094 147.742188 55.839844 147.824219 55.816406 C 147.730469 55.84375 147.636719 55.875 147.535156 55.902344 " fill-opacity="1" fill-rule="nonzero"/><path fill="#1368a9" d="M 146.324219 56.257812 C 146.730469 56.140625 147.15625 56.003906 147.5625 55.894531 C 147.554688 55.894531 147.546875 55.898438 147.535156 55.898438 C 147.144531 56.003906 146.722656 56.144531 146.324219 56.257812 " fill-opacity="1" fill-rule="nonzero"/><path fill="#1368a9" d="M 136.738281 59.410156 C 137 59.308594 137.253906 59.234375 137.511719 59.136719 C 137.515625 59.132812 137.515625 59.132812 137.519531 59.132812 C 137.261719 59.230469 136.996094 59.3125 136.738281 59.410156 " fill-opacity="1" fill-rule="nonzero"/><path fill="#1368a9" d="M 137.511719 59.132812 C 137.671875 59.074219 137.820312 59.027344 137.980469 58.96875 C 137.824219 59.027344 137.675781 59.074219 137.519531 59.132812 C 137.515625 59.132812 137.515625 59.132812 137.511719 59.132812 " fill-opacity="1" fill-rule="nonzero"/><g clip-path="url(#id2)"><path fill="#1368a9" d="M 169.757812 74.554688 L 182.265625 74.554688 C 187.015625 74.554688 191.261719 71.71875 193.078125 67.328125 C 194.894531 62.941406 193.898438 57.933594 190.539062 54.574219 L 181.695312 45.730469 L 194.78125 32.644531 L 203.625 41.492188 C 206.980469 44.847656 211.988281 45.84375 216.375 44.027344 C 220.765625 42.210938 223.597656 37.964844 223.597656 33.214844 L 223.597656 20.707031 L 242.101562 20.707031 L 242.101562 33.214844 C 242.101562 37.964844 244.933594 42.210938 249.320312 44.027344 C 253.714844 45.84375 258.71875 44.847656 262.078125 41.492188 L 270.917969 32.644531 L 284 45.730469 L 275.15625 54.574219 C 271.800781 57.933594 270.804688 62.941406 272.621094 67.332031 C 274.441406 71.71875 278.683594 74.554688 283.433594 74.554688 L 295.9375 74.554688 L 295.9375 93.058594 L 283.433594 93.058594 C 278.683594 93.058594 274.441406 95.894531 272.621094 100.28125 C 270.804688 104.667969 271.800781 109.675781 275.160156 113.039062 L 284.003906 121.882812 L 270.917969 134.96875 L 262.078125 126.121094 C 258.71875 122.761719 253.714844 121.765625 249.324219 123.585938 C 244.9375 125.402344 242.101562 129.648438 242.101562 134.398438 L 242.101562 146.90625 L 223.597656 146.90625 L 223.597656 134.398438 C 223.597656 129.648438 220.765625 125.398438 216.375 123.585938 C 211.984375 121.765625 206.980469 122.761719 203.625 126.121094 L 194.78125 134.96875 L 181.695312 121.882812 L 190.539062 113.039062 C 193.898438 109.675781 194.894531 104.667969 193.078125 100.28125 C 191.261719 95.894531 187.015625 93.058594 182.265625 93.058594 L 169.757812 93.058594 Z M 155.242188 71.734375 L 155.242188 95.875 C 155.242188 102.328125 160.492188 107.574219 166.945312 107.574219 L 175.464844 107.574219 L 169.4375 113.605469 C 164.878906 118.171875 164.878906 125.59375 169.441406 130.15625 L 186.503906 147.222656 C 188.714844 149.4375 191.652344 150.652344 194.78125 150.652344 C 197.90625 150.652344 200.84375 149.4375 203.050781 147.222656 L 209.082031 141.199219 L 209.082031 149.722656 C 209.082031 156.175781 214.328125 161.425781 220.78125 161.425781 L 244.917969 161.425781 C 251.367188 161.425781 256.617188 156.175781 256.617188 149.722656 L 256.617188 141.199219 L 262.640625 147.222656 C 264.855469 149.4375 267.792969 150.652344 270.917969 150.652344 C 274.046875 150.652344 276.988281 149.4375 279.195312 147.222656 L 296.257812 130.15625 C 300.820312 125.59375 300.820312 118.171875 296.257812 113.605469 L 290.230469 107.574219 L 298.753906 107.574219 C 305.207031 107.574219 310.460938 102.328125 310.460938 95.875 L 310.460938 71.734375 C 310.460938 65.285156 305.207031 60.035156 298.753906 60.035156 L 290.230469 60.035156 L 296.257812 54.003906 C 298.46875 51.792969 299.6875 48.855469 299.6875 45.730469 C 299.6875 42.601562 298.46875 39.660156 296.257812 37.453125 L 279.195312 20.386719 C 274.628906 15.828125 267.210938 15.828125 262.640625 20.386719 L 256.617188 26.417969 L 256.617188 17.890625 C 256.617188 11.441406 251.367188 6.1875 244.917969 6.1875 L 220.78125 6.1875 C 214.328125 6.1875 209.082031 11.441406 209.082031 17.890625 L 209.082031 26.417969 L 203.050781 20.386719 C 198.492188 15.828125 191.070312 15.828125 186.503906 20.386719 L 169.441406 37.453125 C 167.230469 39.664062 166.015625 42.601562 166.015625 45.730469 C 166.015625 48.851562 167.230469 51.792969 169.441406 54.003906 L 175.464844 60.035156 L 166.945312 60.035156 C 160.492188 60.035156 155.242188 65.285156 155.242188 71.734375 " fill-opacity="1" fill-rule="nonzero"/></g><path fill="#1368a9" d="M 232.851562 60.160156 C 245.882812 60.160156 256.488281 70.769531 256.488281 83.804688 C 256.488281 96.839844 245.882812 107.445312 232.851562 107.445312 C 219.816406 107.445312 209.214844 96.839844 209.214844 83.804688 C 209.214844 70.769531 219.816406 60.160156 232.851562 60.160156 Z M 232.851562 121.96875 C 253.890625 121.96875 271.007812 104.847656 271.007812 83.804688 C 271.007812 62.765625 253.890625 45.644531 232.851562 45.644531 C 211.808594 45.644531 194.695312 62.765625 194.695312 83.804688 C 194.695312 104.847656 211.808594 121.96875 232.851562 121.96875 " fill-opacity="1" fill-rule="nonzero"/><path fill="#1368a9" d="M 58.328125 151.199219 L 66.722656 151.199219 C 71.097656 151.199219 75.007812 148.585938 76.679688 144.542969 C 78.355469 140.5 77.4375 135.890625 74.34375 132.796875 L 68.40625 126.863281 L 76.632812 118.636719 L 82.570312 124.574219 C 85.664062 127.667969 90.273438 128.585938 94.316406 126.90625 C 98.355469 125.230469 100.96875 121.324219 100.96875 116.949219 L 100.96875 108.550781 L 112.601562 108.550781 L 112.601562 116.949219 C 112.601562 121.324219 115.214844 125.230469 119.253906 126.90625 C 123.292969 128.585938 127.90625 127.667969 131 124.570312 L 136.9375 118.636719 L 145.164062 126.863281 L 139.226562 132.796875 C 136.132812 135.890625 135.214844 140.5 136.890625 144.542969 C 138.566406 148.585938 142.472656 151.199219 146.847656 151.199219 L 155.242188 151.199219 L 155.242188 162.835938 L 146.847656 162.835938 C 142.472656 162.835938 138.566406 165.445312 136.890625 169.488281 C 135.214844 173.53125 136.132812 178.144531 139.226562 181.234375 L 145.164062 187.171875 L 136.9375 195.398438 L 131 189.460938 C 127.910156 186.367188 123.296875 185.453125 119.253906 187.128906 C 115.214844 188.804688 112.601562 192.710938 112.601562 197.085938 L 112.601562 205.484375 L 100.96875 205.484375 L 100.96875 197.085938 C 100.96875 192.710938 98.355469 188.804688 94.316406 187.128906 C 90.277344 185.453125 85.664062 186.367188 82.570312 189.464844 L 76.632812 195.398438 L 68.40625 187.175781 L 74.34375 181.238281 C 77.4375 178.144531 78.355469 173.53125 76.679688 169.488281 C 75.007812 165.445312 71.097656 162.835938 66.722656 162.835938 L 58.328125 162.835938 Z M 43.8125 147.457031 L 43.8125 166.574219 C 43.8125 172.519531 48.644531 177.351562 54.585938 177.351562 L 57.695312 177.351562 L 55.5 179.550781 C 53.464844 181.585938 52.339844 184.289062 52.339844 187.171875 C 52.339844 190.050781 53.460938 192.757812 55.496094 194.796875 L 69.015625 208.316406 C 73.214844 212.515625 80.050781 212.515625 84.253906 208.3125 L 86.453125 206.117188 L 86.453125 209.222656 C 86.453125 215.167969 91.285156 220.003906 97.226562 220.003906 L 116.34375 220.003906 C 122.285156 220.003906 127.117188 215.167969 127.117188 209.222656 L 127.117188 206.117188 L 129.316406 208.316406 C 133.519531 212.515625 140.355469 212.515625 144.558594 208.3125 L 158.074219 194.792969 C 160.109375 192.757812 161.230469 190.050781 161.230469 187.171875 C 161.230469 184.289062 160.109375 181.585938 158.070312 179.550781 L 155.875 177.351562 L 158.980469 177.351562 C 164.925781 177.351562 169.757812 172.519531 169.757812 166.574219 L 169.757812 147.457031 C 169.757812 141.515625 164.925781 136.679688 158.980469 136.679688 L 155.875 136.679688 L 158.070312 134.484375 C 160.109375 132.453125 161.230469 129.742188 161.230469 126.859375 C 161.230469 123.980469 160.109375 121.273438 158.070312 119.242188 L 144.554688 105.71875 C 140.355469 101.523438 133.519531 101.523438 129.316406 105.722656 L 127.117188 107.917969 L 127.117188 104.8125 C 127.117188 98.867188 122.285156 94.03125 116.34375 94.03125 L 97.226562 94.03125 C 91.285156 94.03125 86.453125 98.867188 86.453125 104.8125 L 86.453125 107.917969 L 84.253906 105.71875 C 80.050781 101.519531 73.214844 101.523438 69.011719 105.722656 L 55.5 119.238281 C 53.464844 121.273438 52.339844 123.980469 52.339844 126.859375 C 52.339844 129.742188 53.464844 132.453125 55.496094 134.484375 L 57.695312 136.679688 L 54.585938 136.679688 C 48.644531 136.679688 43.8125 141.515625 43.8125 147.457031 " fill-opacity="1" fill-rule="nonzero"/><path fill="#1368a9" d="M 106.785156 145.652344 C 113.050781 145.652344 118.148438 150.753906 118.148438 157.015625 C 118.148438 163.285156 113.050781 168.382812 106.785156 168.382812 C 100.519531 168.382812 95.421875 163.285156 95.421875 157.015625 C 95.421875 150.753906 100.519531 145.652344 106.785156 145.652344 Z M 106.785156 182.902344 C 121.058594 182.902344 132.667969 171.289062 132.667969 157.015625 C 132.667969 142.742188 121.058594 131.136719 106.785156 131.136719 C 92.511719 131.136719 80.902344 142.742188 80.902344 157.015625 C 80.902344 171.289062 92.511719 182.902344 106.785156 182.902344 " fill-opacity="1" fill-rule="nonzero"/></svg>