<svg xmlns="http://www.w3.org/2000/svg" xmlns:xlink="http://www.w3.org/1999/xlink" width="500" zoomAndPan="magnify" viewBox="0 0 375 374.999991" height="500" preserveAspectRatio="xMidYMid meet" version="1.0"><defs><g/></defs><g fill="#1d2ae8" fill-opacity="1"><g transform="translate(18.03516, 203.624987)"><g><path d="M 62.554688 -2.40625 L 57.546875 -2.40625 C 57.546875 -2.472656 57.546875 -2.472656 57.546875 -2.472656 L 55.921875 -6.503906 L 59.628906 -6.503906 L 56.117188 -15.152344 L 50.980469 -15.152344 L 49.355469 -19.246094 L 52.800781 -19.246094 L 48.640625 -29.585938 L 51.628906 -29.585938 L 51.109375 -30.953125 L 46.296875 -30.953125 L 43.632812 -37.519531 L 46.816406 -37.519531 L 45.128906 -41.617188 L 40.316406 -41.617188 L 37.910156 -47.535156 C 37.910156 -47.597656 37.84375 -47.664062 37.84375 -47.792969 L 35.046875 -47.792969 C 34.917969 -48.054688 34.789062 -48.3125 34.722656 -48.507812 C 34.660156 -48.703125 34.527344 -48.898438 34.464844 -49.160156 L 42.589844 -49.160156 C 41.941406 -50.847656 40.707031 -52.28125 39.144531 -53.191406 L 37.195312 -53.191406 C 36.023438 -53.90625 34.660156 -54.296875 33.164062 -54.296875 C 31.730469 -54.296875 30.300781 -53.90625 29.132812 -53.191406 L 31.015625 -53.191406 C 30.886719 -53.125 30.757812 -52.996094 30.5625 -52.929688 C 30.238281 -52.734375 29.910156 -52.476562 29.652344 -52.28125 C 28.871094 -51.628906 28.222656 -50.589844 27.503906 -49.160156 L 19.378906 -49.160156 C 19.183594 -48.703125 18.988281 -48.25 18.792969 -47.792969 L 21.523438 -47.792969 C 21.523438 -47.664062 21.457031 -47.597656 21.457031 -47.535156 L 19.050781 -41.617188 L 23.863281 -41.617188 L 22.238281 -37.519531 L 19.050781 -37.519531 L 16.386719 -30.953125 L 21.199219 -30.953125 L 20.679688 -29.585938 L 17.621094 -29.585938 L 13.460938 -19.246094 L 10.015625 -19.246094 L 8.386719 -15.152344 L 13.523438 -15.152344 L 10.015625 -6.503906 L 6.242188 -6.503906 L 4.683594 -2.472656 C 4.683594 -2.472656 4.617188 -2.472656 4.617188 -2.40625 L 9.6875 -2.40625 C 9.492188 -1.886719 9.429688 -1.496094 9.492188 -1.105469 L 4.292969 -1.105469 C 4.355469 -1.039062 4.355469 -0.976562 4.355469 -0.910156 C 4.421875 -0.519531 4.746094 0.0664062 5.789062 0.0664062 L 12.941406 0.0664062 C 13.71875 0.0664062 14.304688 -0.390625 14.628906 -1.105469 L 19.832031 -1.105469 C 19.898438 -1.171875 19.960938 -1.234375 19.960938 -1.300781 L 20.417969 -2.40625 L 15.347656 -2.40625 L 16.972656 -6.503906 L 20.742188 -6.503906 L 22.367188 -10.597656 L 36.609375 -10.597656 C 37.324219 -10.597656 37.972656 -10.925781 38.300781 -11.507812 C 38.691406 -12.03125 38.753906 -12.746094 38.558594 -13.394531 L 37.84375 -15.152344 L 32.707031 -15.152344 L 31.082031 -19.183594 C 31.082031 -19.183594 31.082031 -19.246094 31.082031 -19.246094 L 34.527344 -19.246094 C 34.203125 -19.960938 33.488281 -20.484375 32.640625 -20.484375 L 24.644531 -20.484375 L 25.816406 -23.410156 L 32.316406 -23.410156 L 32.316406 -24.125 L 26.074219 -24.125 L 28.222656 -29.585938 L 31.210938 -29.585938 L 31.796875 -30.953125 L 26.984375 -30.953125 L 29.585938 -37.519531 L 32.773438 -37.519531 L 34.332031 -41.550781 C 34.398438 -41.617188 34.398438 -41.617188 34.398438 -41.617188 L 34.789062 -41.617188 L 36.414062 -37.519531 L 33.226562 -37.519531 L 35.894531 -30.953125 L 40.707031 -30.953125 L 41.226562 -29.585938 L 38.234375 -29.585938 L 42.332031 -19.246094 L 38.886719 -19.246094 L 40.511719 -15.152344 L 45.648438 -15.152344 L 49.160156 -6.503906 L 45.386719 -6.503906 L 47.011719 -2.40625 L 52.085938 -2.40625 L 52.476562 -1.367188 C 52.539062 -1.234375 52.605469 -1.171875 52.605469 -1.105469 L 47.402344 -1.105469 C 47.792969 -0.390625 48.378906 0.0664062 49.160156 0.0664062 L 56.117188 0.0664062 C 57.15625 0.0664062 57.417969 -0.585938 57.546875 -0.910156 C 57.546875 -0.910156 57.546875 -1.039062 57.546875 -1.105469 L 62.75 -1.105469 C 62.8125 -1.496094 62.75 -1.886719 62.554688 -2.40625 Z M 29.714844 -8.191406 L 40.640625 -8.191406 L 40.640625 -7.542969 L 29.714844 -7.542969 Z M 18.402344 -4.617188 L 25.554688 -4.617188 L 25.554688 -3.902344 L 18.402344 -3.902344 Z M 18.402344 -4.617188 "/></g></g></g><g fill="#1d2ae8" fill-opacity="1"><g transform="translate(85.131327, 203.624987)"><g><path d="M 82.257812 -42.917969 L 82.257812 -42.980469 L 84.664062 -42.980469 L 86.222656 -47.859375 L 81.410156 -47.859375 L 82.710938 -51.824219 C 82.84375 -52.148438 82.90625 -52.476562 82.90625 -52.800781 L 85.3125 -52.800781 C 85.3125 -52.996094 85.3125 -53.191406 85.246094 -53.386719 C 85.183594 -53.777344 84.859375 -54.359375 83.816406 -54.359375 L 76.664062 -54.359375 C 75.820312 -54.359375 75.167969 -53.839844 74.777344 -52.929688 L 74.777344 -52.800781 L 72.371094 -52.800781 L 70.8125 -47.859375 L 75.625 -47.859375 L 74.0625 -42.980469 L 71.65625 -42.980469 L 71.65625 -42.917969 L 69.25 -42.917969 L 67.691406 -38.039062 L 72.503906 -38.039062 L 70.941406 -33.03125 L 66.128906 -33.03125 L 65.609375 -31.40625 L 70.421875 -31.40625 L 68.015625 -23.863281 L 64.441406 -23.863281 L 62.878906 -18.855469 L 65.285156 -18.855469 L 63.660156 -13.914062 C 63.660156 -13.785156 63.59375 -13.785156 63.59375 -13.785156 L 63.335938 -13.71875 C 63.335938 -13.71875 63.335938 -13.785156 63.269531 -13.851562 L 61.839844 -18.855469 L 59.433594 -18.855469 L 58.003906 -23.863281 L 61.578125 -23.863281 L 59.367188 -31.40625 L 54.554688 -31.40625 L 54.101562 -33.03125 L 58.914062 -33.03125 L 57.480469 -38.039062 L 52.671875 -38.039062 L 51.238281 -42.917969 L 53.644531 -42.917969 L 53.582031 -42.980469 L 55.988281 -42.980469 L 54.621094 -47.859375 L 49.808594 -47.859375 L 48.378906 -52.800781 L 50.785156 -52.800781 L 50.71875 -52.929688 C 50.394531 -53.839844 49.742188 -54.359375 48.898438 -54.359375 L 41.550781 -54.359375 C 40.707031 -54.359375 40.054688 -53.839844 39.664062 -52.929688 L 39.664062 -52.800781 L 37.257812 -52.800781 L 35.699219 -47.859375 L 40.445312 -47.859375 L 38.949219 -42.980469 L 36.542969 -42.980469 L 36.542969 -42.917969 L 34.136719 -42.917969 L 32.578125 -38.039062 L 37.390625 -38.039062 L 35.828125 -33.03125 L 27.179688 -33.03125 L 26.660156 -31.40625 L 35.308594 -31.40625 L 32.902344 -23.863281 L 29.328125 -23.863281 L 27.765625 -18.855469 L 30.105469 -18.855469 L 28.546875 -13.914062 C 28.546875 -13.785156 28.480469 -13.785156 28.480469 -13.785156 L 28.222656 -13.71875 C 28.222656 -13.71875 28.222656 -13.785156 28.15625 -13.851562 L 26.726562 -18.855469 L 24.320312 -18.855469 L 22.824219 -23.863281 L 26.464844 -23.863281 L 24.253906 -31.40625 L 19.441406 -31.40625 L 18.988281 -33.03125 L 23.800781 -33.03125 L 22.304688 -38.039062 L 17.558594 -38.039062 L 16.125 -42.917969 L 18.53125 -42.917969 L 18.46875 -42.980469 L 20.871094 -42.980469 L 19.507812 -47.859375 L 14.695312 -47.859375 L 13.265625 -52.800781 L 15.605469 -52.800781 L 15.605469 -52.929688 C 15.28125 -53.839844 14.628906 -54.359375 13.71875 -54.359375 L 6.761719 -54.359375 C 5.722656 -54.359375 5.460938 -53.710938 5.398438 -53.386719 C 5.332031 -53.191406 5.332031 -52.996094 5.332031 -52.800781 L 2.925781 -52.800781 C 2.925781 -52.476562 2.992188 -52.148438 3.121094 -51.824219 L 4.292969 -47.859375 L 9.101562 -47.859375 L 10.535156 -42.980469 L 8.128906 -42.980469 L 8.191406 -42.917969 L 5.789062 -42.917969 L 7.21875 -38.039062 L 12.03125 -38.039062 L 13.523438 -33.03125 L 8.714844 -33.03125 L 9.234375 -31.40625 L 14.046875 -31.40625 L 16.257812 -23.863281 L 12.679688 -23.863281 L 14.175781 -18.855469 L 16.582031 -18.855469 L 18.597656 -12.09375 L 15.019531 -12.09375 L 16.386719 -7.476562 L 21.199219 -7.476562 L 21.394531 -6.761719 C 21.523438 -6.4375 21.71875 -6.046875 21.847656 -5.789062 C 22.042969 -5.007812 22.367188 -4.292969 22.824219 -3.640625 L 19.246094 -3.640625 C 20.679688 -1.429688 23.214844 0 25.945312 0 C 27.570312 0 29.132812 -0.457031 30.433594 -1.367188 C 30.820312 -1.5625 31.148438 -1.820312 31.40625 -2.015625 C 31.863281 -2.40625 32.316406 -2.992188 32.707031 -3.640625 L 36.347656 -3.640625 C 36.871094 -4.488281 37.390625 -5.527344 37.910156 -6.828125 L 38.105469 -7.476562 L 33.292969 -7.476562 L 34.789062 -12.09375 L 38.363281 -12.09375 L 40.574219 -18.855469 L 38.167969 -18.855469 L 39.796875 -23.863281 L 43.371094 -23.863281 L 45.84375 -31.40625 L 49.160156 -31.40625 L 51.433594 -23.863281 L 47.792969 -23.863281 L 49.289062 -18.855469 L 51.695312 -18.855469 L 53.710938 -12.09375 L 50.132812 -12.09375 L 51.5 -7.476562 L 56.3125 -7.476562 L 56.507812 -6.761719 C 56.636719 -6.4375 56.832031 -6.046875 56.960938 -5.789062 C 57.15625 -5.007812 57.546875 -4.292969 57.9375 -3.640625 L 54.359375 -3.640625 C 55.792969 -1.429688 58.328125 0 61.058594 0 C 62.683594 0 64.246094 -0.457031 65.546875 -1.367188 C 65.933594 -1.5625 66.261719 -1.820312 66.519531 -2.015625 C 66.976562 -2.40625 67.429688 -2.992188 67.820312 -3.640625 L 71.460938 -3.640625 C 71.984375 -4.488281 72.503906 -5.527344 73.023438 -6.828125 L 73.21875 -7.476562 L 68.40625 -7.476562 L 69.902344 -12.09375 L 73.542969 -12.09375 L 75.6875 -18.855469 L 73.28125 -18.855469 L 74.910156 -23.863281 L 78.484375 -23.863281 L 80.957031 -31.40625 L 76.144531 -31.40625 L 76.664062 -33.03125 L 81.476562 -33.03125 L 83.035156 -38.039062 L 78.289062 -38.039062 L 79.851562 -42.917969 Z M 66.324219 -34.464844 L 60.539062 -34.464844 L 60.539062 -36.152344 L 66.324219 -36.152344 Z M 69.640625 -44.21875 L 58.914062 -44.21875 L 58.914062 -45.515625 L 69.640625 -45.515625 Z M 32.773438 -44.867188 L 22.5 -44.867188 L 22.5 -46.363281 L 32.773438 -46.363281 Z M 32.773438 -44.867188 "/></g></g></g><g fill="#1d2ae8" fill-opacity="1"><g transform="translate(178.883919, 203.624987)"><g><path d="M 62.554688 -2.40625 L 57.546875 -2.40625 C 57.546875 -2.472656 57.546875 -2.472656 57.546875 -2.472656 L 55.921875 -6.503906 L 59.628906 -6.503906 L 56.117188 -15.152344 L 50.980469 -15.152344 L 49.355469 -19.246094 L 52.800781 -19.246094 L 48.640625 -29.585938 L 51.628906 -29.585938 L 51.109375 -30.953125 L 46.296875 -30.953125 L 43.632812 -37.519531 L 46.816406 -37.519531 L 45.128906 -41.617188 L 40.316406 -41.617188 L 37.910156 -47.535156 C 37.910156 -47.597656 37.84375 -47.664062 37.84375 -47.792969 L 35.046875 -47.792969 C 34.917969 -48.054688 34.789062 -48.3125 34.722656 -48.507812 C 34.660156 -48.703125 34.527344 -48.898438 34.464844 -49.160156 L 42.589844 -49.160156 C 41.941406 -50.847656 40.707031 -52.28125 39.144531 -53.191406 L 37.195312 -53.191406 C 36.023438 -53.90625 34.660156 -54.296875 33.164062 -54.296875 C 31.730469 -54.296875 30.300781 -53.90625 29.132812 -53.191406 L 31.015625 -53.191406 C 30.886719 -53.125 30.757812 -52.996094 30.5625 -52.929688 C 30.238281 -52.734375 29.910156 -52.476562 29.652344 -52.28125 C 28.871094 -51.628906 28.222656 -50.589844 27.503906 -49.160156 L 19.378906 -49.160156 C 19.183594 -48.703125 18.988281 -48.25 18.792969 -47.792969 L 21.523438 -47.792969 C 21.523438 -47.664062 21.457031 -47.597656 21.457031 -47.535156 L 19.050781 -41.617188 L 23.863281 -41.617188 L 22.238281 -37.519531 L 19.050781 -37.519531 L 16.386719 -30.953125 L 21.199219 -30.953125 L 20.679688 -29.585938 L 17.621094 -29.585938 L 13.460938 -19.246094 L 10.015625 -19.246094 L 8.386719 -15.152344 L 13.523438 -15.152344 L 10.015625 -6.503906 L 6.242188 -6.503906 L 4.683594 -2.472656 C 4.683594 -2.472656 4.617188 -2.472656 4.617188 -2.40625 L 9.6875 -2.40625 C 9.492188 -1.886719 9.429688 -1.496094 9.492188 -1.105469 L 4.292969 -1.105469 C 4.355469 -1.039062 4.355469 -0.976562 4.355469 -0.910156 C 4.421875 -0.519531 4.746094 0.0664062 5.789062 0.0664062 L 12.941406 0.0664062 C 13.71875 0.0664062 14.304688 -0.390625 14.628906 -1.105469 L 19.832031 -1.105469 C 19.898438 -1.171875 19.960938 -1.234375 19.960938 -1.300781 L 20.417969 -2.40625 L 15.347656 -2.40625 L 16.972656 -6.503906 L 20.742188 -6.503906 L 22.367188 -10.597656 L 36.609375 -10.597656 C 37.324219 -10.597656 37.972656 -10.925781 38.300781 -11.507812 C 38.691406 -12.03125 38.753906 -12.746094 38.558594 -13.394531 L 37.84375 -15.152344 L 32.707031 -15.152344 L 31.082031 -19.183594 C 31.082031 -19.183594 31.082031 -19.246094 31.082031 -19.246094 L 34.527344 -19.246094 C 34.203125 -19.960938 33.488281 -20.484375 32.640625 -20.484375 L 24.644531 -20.484375 L 25.816406 -23.410156 L 32.316406 -23.410156 L 32.316406 -24.125 L 26.074219 -24.125 L 28.222656 -29.585938 L 31.210938 -29.585938 L 31.796875 -30.953125 L 26.984375 -30.953125 L 29.585938 -37.519531 L 32.773438 -37.519531 L 34.332031 -41.550781 C 34.398438 -41.617188 34.398438 -41.617188 34.398438 -41.617188 L 34.789062 -41.617188 L 36.414062 -37.519531 L 33.226562 -37.519531 L 35.894531 -30.953125 L 40.707031 -30.953125 L 41.226562 -29.585938 L 38.234375 -29.585938 L 42.332031 -19.246094 L 38.886719 -19.246094 L 40.511719 -15.152344 L 45.648438 -15.152344 L 49.160156 -6.503906 L 45.386719 -6.503906 L 47.011719 -2.40625 L 52.085938 -2.40625 L 52.476562 -1.367188 C 52.539062 -1.234375 52.605469 -1.171875 52.605469 -1.105469 L 47.402344 -1.105469 C 47.792969 -0.390625 48.378906 0.0664062 49.160156 0.0664062 L 56.117188 0.0664062 C 57.15625 0.0664062 57.417969 -0.585938 57.546875 -0.910156 C 57.546875 -0.910156 57.546875 -1.039062 57.546875 -1.105469 L 62.75 -1.105469 C 62.8125 -1.496094 62.75 -1.886719 62.554688 -2.40625 Z M 29.714844 -8.191406 L 40.640625 -8.191406 L 40.640625 -7.542969 L 29.714844 -7.542969 Z M 18.402344 -4.617188 L 25.554688 -4.617188 L 25.554688 -3.902344 L 18.402344 -3.902344 Z M 18.402344 -4.617188 "/></g></g></g><g fill="#1d2ae8" fill-opacity="1"><g transform="translate(245.980076, 203.624987)"><g><path d="M 49.613281 -1.753906 L 46.234375 -1.753906 C 46.167969 -2.210938 46.167969 -2.535156 45.972656 -2.796875 L 44.085938 -6.113281 L 48.445312 -6.113281 L 47.597656 -7.542969 L 44.152344 -7.542969 L 40.316406 -14.175781 L 42.785156 -14.175781 L 40.316406 -18.46875 L 36.152344 -18.46875 L 33.941406 -22.304688 C 33.226562 -23.539062 32.511719 -24.578125 31.796875 -25.554688 L 42.394531 -25.554688 C 42.007812 -26.074219 41.550781 -26.53125 41.160156 -26.984375 L 31.210938 -26.984375 C 31.015625 -27.117188 30.886719 -27.308594 30.691406 -27.441406 C 31.148438 -27.960938 31.539062 -28.480469 31.992188 -29.132812 C 32.511719 -29.976562 33.097656 -30.953125 33.746094 -32.058594 L 37.128906 -38.039062 L 38.949219 -38.039062 L 41.421875 -42.332031 L 43.4375 -42.332031 L 45.128906 -45.324219 L 41.617188 -45.324219 L 44.085938 -49.679688 L 47.207031 -49.679688 L 47.921875 -50.914062 C 48.117188 -51.371094 48.183594 -51.890625 48.117188 -52.476562 C 47.921875 -53.191406 47.402344 -53.582031 46.621094 -53.582031 L 40.183594 -53.582031 C 39.46875 -53.582031 39.015625 -53.449219 38.753906 -53.191406 C 38.496094 -52.996094 38.234375 -52.734375 38.039062 -52.28125 L 36.542969 -49.679688 L 33.421875 -49.679688 L 31.015625 -45.324219 L 34.527344 -45.324219 L 32.835938 -42.332031 L 30.757812 -42.332031 L 28.285156 -38.039062 L 26.464844 -38.039062 L 24.710938 -34.917969 C 24.382812 -34.269531 23.996094 -33.746094 23.605469 -33.292969 C 23.34375 -32.902344 22.953125 -32.578125 22.5625 -32.382812 C 22.238281 -32.1875 21.785156 -32.058594 21.261719 -31.992188 C 20.679688 -31.925781 19.960938 -31.863281 19.117188 -31.863281 L 13.136719 -31.863281 L 13.136719 -38.039062 L 17.945312 -38.039062 L 17.945312 -42.332031 L 17.035156 -42.332031 L 17.035156 -45.324219 L 13.523438 -45.324219 L 13.523438 -49.679688 L 16.644531 -49.679688 L 16.644531 -51.304688 C 16.644531 -53.386719 15.347656 -53.582031 14.824219 -53.582031 L 8.84375 -53.582031 C 8.324219 -53.582031 6.957031 -53.386719 6.957031 -51.304688 L 6.957031 -49.679688 L 3.902344 -49.679688 L 3.902344 -45.324219 L 7.414062 -45.324219 L 7.414062 -42.332031 L 4.8125 -42.332031 L 4.8125 -38.039062 L 3.511719 -38.039062 L 3.511719 -26.984375 L 7.414062 -26.984375 L 7.414062 -25.554688 L 2.859375 -25.554688 L 2.859375 -18.46875 L 7.023438 -18.46875 L 7.023438 -14.175781 L 3.707031 -14.175781 L 3.707031 -7.542969 L 5.851562 -7.542969 L 5.851562 -6.113281 L 3.578125 -6.113281 L 3.578125 -2.210938 C 3.578125 -2.082031 3.640625 -1.886719 3.640625 -1.753906 L 7.023438 -1.753906 C 7.152344 -0.195312 8.324219 0.0664062 8.84375 0.0664062 L 14.761719 0.0664062 C 15.28125 0.0664062 16.386719 -0.195312 16.582031 -1.753906 L 13.199219 -1.753906 C 13.199219 -1.886719 13.265625 -2.082031 13.265625 -2.210938 L 13.265625 -6.113281 L 23.800781 -6.113281 L 23.800781 -7.542969 L 13.394531 -7.542969 L 13.394531 -14.175781 L 16.644531 -14.175781 L 16.644531 -18.46875 L 12.484375 -18.46875 L 12.484375 -22.238281 L 19.050781 -22.238281 C 20.679688 -22.238281 21.847656 -22.042969 22.5625 -21.589844 C 23.277344 -21.199219 23.996094 -20.351562 24.710938 -19.050781 L 25.101562 -18.46875 L 29.195312 -18.46875 L 31.667969 -14.175781 L 29.195312 -14.175781 L 32.96875 -7.542969 L 36.414062 -7.542969 L 37.195312 -6.113281 L 32.835938 -6.113281 L 35.308594 -1.753906 L 38.691406 -1.753906 L 38.949219 -1.234375 C 39.210938 -0.84375 39.40625 -0.519531 39.664062 -0.324219 C 39.992188 -0.0664062 40.445312 0.0664062 41.03125 0.0664062 L 48.117188 0.0664062 C 48.964844 0.0664062 49.550781 -0.457031 49.613281 -1.300781 C 49.613281 -1.496094 49.613281 -1.625 49.613281 -1.753906 Z M 27.308594 -46.882812 L 17.816406 -46.882812 L 17.816406 -47.726562 L 27.308594 -47.726562 Z M 24.644531 -16.777344 L 18.335938 -16.777344 L 18.335938 -17.621094 L 24.644531 -17.621094 Z M 31.539062 -2.339844 L 22.433594 -2.339844 L 22.433594 -2.992188 L 31.539062 -2.992188 Z M 31.539062 -2.339844 "/></g></g></g><g fill="#1d2ae8" fill-opacity="1"><g transform="translate(302.348656, 203.624987)"><g><path d="M 44.21875 -51.175781 L 44.21875 -51.433594 C 44.21875 -53.449219 42.980469 -53.710938 42.394531 -53.710938 L 5.070312 -53.710938 C 4.488281 -53.710938 3.25 -53.449219 3.25 -51.371094 L 3.25 -51.175781 L 10.535156 -51.175781 L 10.535156 -49.875 L 3.25 -49.875 L 3.25 -46.296875 C 3.25 -46.167969 3.25 -45.972656 3.316406 -45.84375 L 7.347656 -45.84375 C 7.542969 -44.28125 8.648438 -44.085938 9.101562 -44.085938 L 46.492188 -44.023438 C 46.949219 -44.023438 48.054688 -44.21875 48.25 -45.84375 L 44.21875 -45.84375 C 44.21875 -45.972656 44.21875 -46.101562 44.21875 -46.296875 L 44.21875 -49.875 L 51.5 -49.875 L 51.5 -51.175781 Z M 48.054688 -5.007812 L 48.054688 -9.296875 C 48.054688 -10.273438 47.726562 -10.792969 47.339844 -11.121094 L 53.058594 -11.121094 C 52.671875 -11.507812 52.148438 -11.574219 51.890625 -11.574219 L 28.9375 -11.574219 C 27.570312 -11.574219 26.464844 -11.703125 25.621094 -12.03125 C 24.773438 -12.289062 24.125 -12.746094 23.605469 -13.460938 C 23.277344 -13.914062 23.019531 -14.5 22.824219 -15.152344 L 17.558594 -15.152344 C 17.425781 -15.476562 17.296875 -15.929688 17.230469 -16.320312 C 17.167969 -16.710938 17.167969 -17.101562 17.101562 -17.492188 C 17.101562 -17.492188 17.101562 -17.882812 17.101562 -18.46875 L 41.160156 -18.46875 C 41.160156 -18.921875 41.160156 -19.574219 41.160156 -20.09375 L 17.167969 -20.09375 C 17.167969 -20.679688 17.167969 -21.261719 17.167969 -21.652344 L 21.132812 -21.652344 C 21.132812 -21.976562 21.132812 -22.171875 21.132812 -22.171875 L 50.199219 -22.171875 C 50.589844 -22.171875 51.304688 -22.238281 51.695312 -22.953125 L 47.726562 -22.953125 C 47.859375 -23.277344 48.054688 -23.734375 48.054688 -24.382812 L 48.054688 -26.855469 L 51.042969 -26.855469 L 51.042969 -28.675781 L 48.054688 -28.675781 L 48.054688 -29.519531 C 48.054688 -31.539062 46.753906 -31.796875 46.234375 -31.796875 L 12.679688 -31.730469 C 10.792969 -31.601562 9.167969 -30.5625 8.191406 -29 C 8.128906 -28.871094 8.128906 -28.742188 8.0625 -28.675781 L 11.054688 -28.675781 C 10.859375 -28.222656 10.664062 -27.832031 10.535156 -27.308594 L 10.535156 -26.855469 L 7.542969 -26.855469 L 7.476562 -22.953125 L 11.445312 -22.953125 L 11.445312 -21.652344 L 7.542969 -21.652344 L 7.476562 -20.09375 L 13.851562 -20.09375 L 13.851562 -18.792969 C 13.851562 -18.726562 13.851562 -18.597656 13.851562 -18.46875 L 7.476562 -18.46875 C 7.542969 -17.296875 7.609375 -16.191406 7.671875 -15.152344 L 13.003906 -15.152344 C 13.136719 -13.65625 13.332031 -12.355469 13.589844 -11.121094 L 7.867188 -11.121094 C 7.867188 -11.121094 7.933594 -11.054688 7.933594 -10.988281 C 8.453125 -8.648438 9.296875 -6.632812 10.46875 -5.007812 L 15.867188 -5.007812 C 15.929688 -4.941406 15.996094 -4.746094 16.125 -4.617188 C 16.386719 -4.292969 16.644531 -4.03125 16.972656 -3.707031 L 11.640625 -3.707031 C 12.808594 -2.535156 14.242188 -1.625 15.867188 -1.039062 C 17.816406 -0.324219 20.289062 0.0664062 23.148438 0.0664062 L 46.234375 0.0664062 C 46.816406 0.0664062 48.117188 -0.195312 48.117188 -2.210938 L 48.117188 -3.707031 L 53.386719 -3.707031 L 53.386719 -5.007812 Z M 11.054688 -35.828125 L 32.578125 -35.828125 L 32.578125 -35.113281 L 11.054688 -35.113281 Z M 31.210938 -14.957031 L 45.648438 -14.957031 L 45.648438 -14.242188 L 31.210938 -14.242188 Z M 20.289062 -41.226562 L 42.332031 -41.226562 L 42.332031 -40.183594 L 20.289062 -40.183594 Z M 20.289062 -41.226562 "/></g></g></g></svg>