<svg xmlns="http://www.w3.org/2000/svg" xmlns:xlink="http://www.w3.org/1999/xlink" width="500" zoomAndPan="magnify" viewBox="0 0 375 374.999991" height="500" preserveAspectRatio="xMidYMid meet" version="1.0"><defs><clipPath id="id1"><path d="M 75.507812 47.425781 L 299.550781 47.425781 L 299.550781 308.746094 L 75.507812 308.746094 Z M 75.507812 47.425781 " clip-rule="nonzero"/></clipPath></defs><rect x="-37.5" width="450" fill="#ffffff" y="-37.499999" height="449.999989" fill-opacity="1"/><rect x="-37.5" width="450" fill="#ffffff" y="-37.499999" height="449.999989" fill-opacity="1"/><rect x="-37.5" width="450" fill="#ffffff" y="-37.499999" height="449.999989" fill-opacity="1"/><rect x="-37.5" width="450" fill="#ffffff" y="-37.499999" height="449.999989" fill-opacity="1"/><g clip-path="url(#id1)"><path fill="#68b4e7" d="M 287.980469 195.460938 C 286.992188 208.585938 279.421875 219.765625 269.570312 222.625 C 266.042969 223.640625 263.03125 226.128906 261.304688 229.449219 C 255.917969 239.8125 227.167969 291.546875 187.375 297.1875 C 147.679688 291.558594 119.113281 239.84375 113.773438 229.484375 C 112.050781 226.144531 109.03125 223.65625 105.507812 222.625 C 95.660156 219.765625 88.082031 208.585938 87.101562 195.460938 C 86.253906 184.203125 90.253906 173.707031 97.566406 168.078125 C 100.9375 165.460938 102.953125 161.402344 102.953125 157.195312 C 102.921875 122.296875 112.078125 96.066406 130.167969 79.261719 C 150.421875 60.429688 176.511719 58.894531 184.5 58.894531 C 186.023438 58.894531 186.886719 58.9375 186.929688 58.953125 L 187.375 58.988281 L 187.808594 58.953125 C 188.144531 58.925781 220.46875 56.738281 244.804688 79.261719 C 262.953125 96.066406 272.140625 122.296875 272.125 157.195312 C 272.125 161.402344 274.140625 165.460938 277.511719 168.078125 C 284.808594 173.707031 288.824219 184.203125 287.980469 195.460938 Z M 284.53125 158.992188 C 283.945312 158.546875 283.605469 157.886719 283.605469 157.207031 C 283.621094 118.972656 273.203125 89.917969 252.605469 70.855469 C 225.953125 46.179688 191.839844 47.242188 187.375 47.484375 C 182.945312 47.242188 149.023438 46.179688 122.453125 70.761719 C 101.875 89.828125 91.441406 118.894531 91.46875 157.207031 C 91.46875 157.886719 91.117188 158.546875 90.550781 158.992188 C 80.21875 166.953125 74.527344 181.253906 75.648438 196.316406 C 77 214.398438 87.714844 229.390625 102.289062 233.632812 C 102.8125 233.785156 103.292969 234.1875 103.570312 234.738281 C 111.773438 250.636719 142.035156 302.996094 186.652344 308.652344 L 187.375 308.746094 L 188.101562 308.652344 C 232.800781 302.980469 263.230469 250.636719 271.492188 234.722656 C 271.789062 234.1875 272.246094 233.785156 272.769531 233.632812 C 287.347656 229.40625 298.058594 214.398438 299.429688 196.316406 C 300.554688 181.253906 294.84375 166.953125 284.53125 158.992188 " fill-opacity="1" fill-rule="nonzero"/></g><path fill="#68b4e7" d="M 186.117188 165.339844 L 188.980469 152.492188 C 189.425781 150.441406 188.945312 148.339844 187.636719 146.691406 C 186.316406 145.0625 184.378906 144.125 182.265625 144.125 L 173.847656 144.125 L 195.644531 120.925781 L 192.808594 134.917969 C 192.394531 136.949219 192.902344 139.035156 194.210938 140.632812 C 195.519531 142.230469 197.460938 143.15625 199.523438 143.15625 L 207.03125 143.15625 Z M 224.007812 135.824219 C 222.933594 133.320312 220.453125 131.6875 217.71875 131.6875 L 205.171875 131.6875 L 210.125 107.316406 C 210.742188 104.277344 209.3125 101.277344 206.558594 99.847656 C 203.800781 98.433594 200.523438 99 198.398438 101.25 L 158.175781 144.046875 C 156.316406 146.050781 155.808594 148.949219 156.902344 151.472656 C 157.992188 153.976562 160.460938 155.597656 163.195312 155.597656 L 176.527344 155.597656 L 171.261719 179.210938 C 170.601562 182.207031 172.03125 185.3125 174.757812 186.753906 C 175.769531 187.292969 176.863281 187.539062 177.972656 187.539062 C 179.820312 187.539062 181.652344 186.804688 182.976562 185.390625 L 222.703125 143.25 C 224.59375 141.25 225.105469 138.34375 224.007812 135.824219 " fill-opacity="1" fill-rule="nonzero"/><path fill="#68b4e7" d="M 133.734375 150.886719 C 130.921875 150.886719 128.089844 150.886719 125.269531 150.886719 C 125.269531 146.121094 125.269531 141.339844 125.269531 136.558594 C 128.089844 136.558594 130.921875 136.558594 133.734375 136.558594 C 133.734375 141.339844 133.734375 146.121094 133.734375 150.886719 Z M 162.070312 161.34375 C 156.453125 161.34375 150.839844 161.34375 145.21875 161.34375 C 145.21875 159.777344 145.21875 158.191406 145.21875 156.621094 C 145.21875 148.03125 145.21875 139.4375 145.21875 130.824219 C 145.21875 129.167969 145.21875 127.507812 145.21875 125.84375 C 150.839844 125.84375 156.453125 125.84375 162.070312 125.84375 C 169.464844 125.84375 169.464844 114.375 162.070312 114.375 C 154.542969 114.375 147.003906 114.375 139.476562 114.375 C 136.386719 114.375 133.734375 117.003906 133.734375 120.109375 C 133.734375 121.773438 133.734375 123.433594 133.734375 125.09375 C 129.011719 125.09375 124.269531 125.09375 119.53125 125.09375 C 116.417969 125.09375 113.789062 127.71875 113.789062 130.824219 C 113.789062 139.4375 113.789062 148.03125 113.789062 156.621094 C 113.789062 159.726562 116.417969 162.359375 119.53125 162.359375 C 124.269531 162.359375 129.011719 162.359375 133.734375 162.359375 C 133.734375 163.925781 133.734375 165.511719 133.734375 167.082031 C 133.734375 170.171875 136.371094 172.796875 139.476562 172.796875 C 147.003906 172.796875 154.542969 172.796875 162.070312 172.796875 C 169.464844 172.796875 169.464844 161.34375 162.070312 161.34375 " fill-opacity="1" fill-rule="nonzero"/><path fill="#68b4e7" d="M 244.066406 114.375 C 236.539062 114.375 229.011719 114.375 221.472656 114.375 C 214.085938 114.375 214.085938 125.84375 221.472656 125.84375 C 227.089844 125.84375 232.707031 125.84375 238.324219 125.84375 C 238.324219 137.683594 238.324219 149.507812 238.324219 161.34375 C 232.707031 161.34375 227.089844 161.34375 221.472656 161.34375 C 214.085938 161.34375 214.085938 172.796875 221.472656 172.796875 C 229.011719 172.796875 236.539062 172.796875 244.066406 172.796875 C 247.175781 172.796875 249.808594 170.183594 249.808594 167.082031 C 249.808594 151.410156 249.808594 135.761719 249.808594 120.109375 C 249.808594 117.019531 247.175781 114.375 244.066406 114.375 " fill-opacity="1" fill-rule="nonzero"/></svg>