<svg xmlns="http://www.w3.org/2000/svg" xmlns:xlink="http://www.w3.org/1999/xlink" width="500" zoomAndPan="magnify" viewBox="0 0 375 374.999991" height="500" preserveAspectRatio="xMidYMid meet" version="1.0"><defs><clipPath id="id1"><path d="M 9.375 3 L 336 3 L 336 373 L 9.375 373 Z M 9.375 3 " clip-rule="nonzero"/></clipPath></defs><path fill="#21ac85" d="M 111.394531 93.675781 C 103.015625 88.480469 95.367188 101.671875 103.691406 106.839844 C 115.828125 114.367188 126.132812 124.890625 134.320312 136.988281 C 125.992188 139.328125 113.007812 141.050781 101.828125 134.074219 C 87.601562 125.183594 79.140625 104.636719 76.683594 72.996094 C 76.65625 72.65625 76.914062 72.027344 77.453125 71.484375 C 77.972656 70.964844 78.570312 70.703125 78.917969 70.703125 C 78.933594 70.703125 78.945312 70.703125 78.960938 70.707031 L 78.964844 70.707031 C 110.652344 72.96875 131.277344 81.292969 140.261719 95.449219 C 146.453125 105.214844 145.945312 116.425781 144.175781 124.65625 C 135.265625 112.363281 124.289062 101.671875 111.394531 93.675781 " fill-opacity="1" fill-rule="nonzero"/><path fill="#2ed1a2" d="M 186.484375 150.34375 C 193.507812 137.890625 202.628906 127.246094 214.1875 120.144531 C 222.546875 115.007812 214.871094 101.828125 206.480469 106.980469 C 194.554688 114.308594 184.933594 124.398438 177.261719 136.082031 C 176.332031 131.320312 176.320312 125.945312 178.535156 120.699219 C 183.449219 109.058594 198.558594 99.867188 222.230469 94.117188 C 222.363281 94.171875 222.539062 94.296875 222.632812 94.402344 C 224.757812 118.648438 220.875 135.890625 211.40625 144.265625 C 203.597656 151.167969 193.015625 151.195312 186.484375 150.34375 " fill-opacity="1" fill-rule="nonzero"/><g clip-path="url(#id1)"><path fill="#1368a9" d="M 121.351562 7.75 C 166.289062 -0.00390625 218.023438 2.441406 256.003906 30.40625 C 281.078125 48.875 299.65625 78.421875 302.371094 109.757812 C 303.496094 122.78125 302.46875 135.148438 306.75 147.875 C 309.144531 154.984375 312.800781 161.359375 316.398438 167.886719 C 320.273438 174.910156 324.144531 181.933594 328.019531 188.960938 C 330.546875 193.539062 334.523438 198.816406 335.585938 204.074219 C 337.328125 212.679688 331.375 220.371094 322.96875 221.828125 C 320.476562 222.257812 315.65625 221.007812 313.660156 222.101562 C 311.316406 223.378906 312.859375 221.792969 312.136719 225.261719 C 310.8125 231.585938 312.136719 239.628906 312.136719 246.082031 C 312.136719 254.257812 312.136719 262.441406 312.136719 270.617188 C 312.136719 289.253906 308.410156 304.644531 289.136719 312.386719 C 281.203125 315.574219 272.800781 319.460938 264.09375 319.21875 C 257.464844 319.035156 250.558594 317.085938 244.085938 315.902344 C 235.628906 314.363281 226.589844 311.601562 218.003906 311.144531 C 211.058594 310.777344 208.648438 314.027344 208.367188 320.761719 C 207.753906 335.507812 208.367188 350.402344 208.367188 365.164062 C 208.367188 374.976562 193.109375 374.992188 193.109375 365.164062 C 193.109375 352.402344 193.109375 339.632812 193.109375 326.871094 C 193.109375 313.265625 194.640625 298.054688 211.527344 295.714844 C 223.59375 294.039062 238.335938 299.414062 250.113281 301.566406 C 254.660156 302.394531 259.449219 303.789062 264.09375 303.976562 C 270.875 304.253906 279.890625 300.3125 285.988281 297.34375 C 300.363281 290.335938 296.875 272.234375 296.875 259.003906 C 296.875 246.761719 295.851562 234.027344 296.875 221.820312 C 297.617188 212.972656 303.570312 207.515625 312.359375 206.855469 C 313.417969 206.773438 319.832031 207.574219 320.4375 206.855469 C 320.375 206.933594 318.949219 204.097656 318.121094 202.597656 C 311.839844 191.207031 305.425781 179.871094 299.265625 168.414062 C 293.929688 158.484375 290.183594 148.03125 288.519531 136.859375 C 286.707031 124.722656 288.328125 112.492188 285.585938 100.457031 C 282.757812 88.019531 276.960938 76.136719 269.671875 65.714844 C 246.554688 32.652344 206.492188 19.980469 167.609375 19.359375 C 126.683594 18.707031 80.253906 27.078125 52.078125 59.441406 C 32.175781 82.289062 25.679688 113.277344 24.730469 142.777344 C 24.085938 162.71875 25.21875 182.230469 31.585938 201.316406 C 40.082031 226.796875 54.484375 251.058594 71.226562 272 C 81.300781 284.601562 95.808594 293.140625 96.15625 310.4375 C 96.429688 324.257812 96.15625 338.109375 96.15625 351.9375 C 96.15625 361.746094 80.890625 361.761719 80.890625 351.9375 C 80.890625 338.757812 80.890625 325.578125 80.890625 312.402344 C 80.890625 305.527344 78.453125 302.289062 73.441406 297.402344 C 67.070312 291.195312 61.4375 284.222656 56.046875 277.164062 C 28.242188 240.746094 9.621094 199.628906 9.339844 153.441406 C 9.152344 122.972656 13.523438 91.144531 29.558594 64.644531 C 49.402344 31.851562 84.421875 14.121094 121.351562 7.75 " fill-opacity="1" fill-rule="nonzero"/></g><path fill="#1368a9" d="M 222.632812 94.40625 C 222.539062 94.296875 222.363281 94.171875 222.230469 94.117188 C 198.558594 99.867188 183.449219 109.054688 178.53125 120.699219 C 176.320312 125.945312 176.332031 131.316406 177.261719 136.082031 C 184.933594 124.398438 194.554688 114.308594 206.484375 106.980469 C 214.875 101.828125 222.546875 115.007812 214.1875 120.144531 C 202.628906 127.246094 193.507812 137.890625 186.484375 150.347656 C 193.015625 151.195312 203.601562 151.167969 211.40625 144.265625 C 220.875 135.890625 224.757812 118.652344 222.632812 94.40625 Z M 140.261719 95.449219 C 131.277344 81.292969 110.65625 72.96875 78.964844 70.707031 L 78.960938 70.707031 C 78.945312 70.707031 78.933594 70.707031 78.917969 70.707031 C 78.570312 70.707031 77.976562 70.964844 77.457031 71.484375 C 76.914062 72.027344 76.65625 72.65625 76.683594 72.996094 C 79.144531 104.636719 87.601562 125.183594 101.828125 134.074219 C 113.007812 141.050781 125.992188 139.328125 134.320312 136.988281 C 126.132812 124.890625 115.828125 114.367188 103.691406 106.839844 C 95.363281 101.675781 103.019531 88.480469 111.394531 93.675781 C 124.289062 101.675781 135.265625 112.367188 144.175781 124.65625 C 145.945312 116.425781 146.453125 105.214844 140.261719 95.449219 Z M 221.523438 155.679688 C 212.246094 163.882812 201.074219 165.953125 192.167969 165.953125 C 186.96875 165.953125 182.53125 165.246094 179.703125 164.640625 C 179.671875 164.640625 179.640625 164.625 179.609375 164.617188 C 171.054688 185.515625 167.167969 209.207031 166.667969 229.300781 C 166.421875 239.089844 151.164062 239.128906 151.402344 229.300781 C 151.6875 217.925781 152.90625 205.734375 155.257812 193.496094 C 155.207031 193.234375 155.121094 192.992188 155.089844 192.714844 C 153.472656 178.472656 149.066406 163.898438 142.269531 150.472656 C 136.925781 152.28125 129.066406 154.273438 120.207031 154.273438 C 111.785156 154.273438 102.507812 152.472656 93.738281 146.996094 C 75.175781 135.40625 64.324219 110.90625 61.46875 74.179688 C 61.089844 69.3125 62.972656 64.417969 66.628906 60.738281 C 70.289062 57.0625 75.207031 55.148438 80.050781 55.5 C 116.839844 58.128906 141.433594 68.820312 153.148438 87.289062 C 165.855469 107.308594 159.199219 130.160156 155.746094 139.058594 C 155.421875 139.894531 155.007812 140.695312 154.558594 141.472656 C 158.191406 148.410156 161.273438 155.636719 163.742188 163.039062 C 164.910156 159.945312 166.164062 156.886719 167.519531 153.890625 C 163.335938 145.675781 157.882812 130.394531 164.472656 114.777344 C 171.457031 98.234375 189.746094 86.28125 218.835938 79.253906 C 223.058594 78.238281 227.621094 79.183594 231.351562 81.859375 C 235.078125 84.53125 237.433594 88.542969 237.816406 92.863281 C 240.460938 122.640625 234.980469 143.777344 221.523438 155.679688 " fill-opacity="1" fill-rule="nonzero"/></svg>