<svg xmlns="http://www.w3.org/2000/svg" xmlns:xlink="http://www.w3.org/1999/xlink" width="500" zoomAndPan="magnify" viewBox="0 0 375 374.999991" height="500" preserveAspectRatio="xMidYMid meet" version="1.0"><defs><clipPath id="id1"><path d="M 30.078125 11 L 344 11 L 344 366 L 30.078125 366 Z M 30.078125 11 " clip-rule="nonzero"/></clipPath></defs><path fill="#3aaded" d="M 84.640625 156.910156 C 100.839844 156.910156 117.035156 156.910156 133.234375 156.910156 C 126.222656 180.050781 91.664062 180 84.640625 156.910156 " fill-opacity="1" fill-rule="nonzero"/><path fill="#ffffff" d="M 93.539062 142.277344 C 98.628906 132.503906 103.71875 122.726562 108.804688 112.953125 C 113.890625 122.726562 118.980469 132.503906 124.066406 142.277344 C 113.890625 142.277344 103.71875 142.277344 93.539062 142.277344 " fill-opacity="1" fill-rule="nonzero"/><path fill="#3aaded" d="M 213.824219 156.910156 C 230.023438 156.910156 246.21875 156.910156 262.417969 156.910156 C 255.40625 180.050781 220.847656 180 213.824219 156.910156 " fill-opacity="1" fill-rule="nonzero"/><path fill="#ffffff" d="M 253.246094 142.277344 C 243.074219 142.277344 232.898438 142.277344 222.726562 142.277344 C 227.808594 132.503906 232.898438 122.726562 237.984375 112.953125 C 243.074219 122.726562 248.160156 132.503906 253.246094 142.277344 " fill-opacity="1" fill-rule="nonzero"/><g clip-path="url(#id1)"><path fill="#1368a9" d="M 137.8125 14.839844 C 180.90625 7.398438 230.511719 9.746094 266.933594 36.589844 C 290.980469 54.320312 308.789062 82.6875 311.390625 112.769531 C 312.472656 125.273438 311.484375 137.144531 315.59375 149.359375 C 317.886719 156.1875 321.394531 162.308594 324.84375 168.574219 C 328.558594 175.316406 332.273438 182.058594 335.988281 188.804688 C 338.410156 193.199219 342.226562 198.265625 343.246094 203.3125 C 344.914062 211.574219 339.203125 218.960938 331.148438 220.355469 C 328.757812 220.769531 324.132812 219.566406 322.214844 220.617188 C 319.972656 221.847656 321.449219 220.324219 320.757812 223.652344 C 319.492188 229.722656 320.757812 237.445312 320.757812 243.640625 C 320.757812 251.492188 320.757812 259.34375 320.757812 267.195312 C 320.757812 285.085938 317.183594 299.859375 298.707031 307.292969 C 291.09375 310.355469 283.039062 314.085938 274.6875 313.851562 C 268.335938 313.675781 261.710938 311.804688 255.503906 310.667969 C 247.394531 309.1875 238.722656 306.535156 230.492188 306.101562 C 223.832031 305.746094 221.523438 308.867188 221.257812 315.332031 C 220.667969 329.492188 221.257812 343.789062 221.257812 357.960938 C 221.257812 367.378906 206.621094 367.394531 206.621094 357.960938 C 206.621094 345.707031 206.621094 333.449219 206.621094 321.195312 C 206.621094 308.136719 208.089844 293.53125 224.28125 291.285156 C 235.855469 289.679688 249.992188 294.839844 261.285156 296.902344 C 265.640625 297.699219 270.238281 299.039062 274.6875 299.21875 C 281.191406 299.484375 289.839844 295.703125 295.6875 292.851562 C 309.472656 286.125 306.125 268.746094 306.125 256.042969 C 306.125 244.292969 305.140625 232.070312 306.125 220.347656 C 306.835938 211.855469 312.539062 206.617188 320.972656 205.984375 C 321.988281 205.90625 328.136719 206.671875 328.71875 205.984375 C 328.65625 206.054688 327.289062 203.335938 326.5 201.898438 C 320.46875 190.960938 314.324219 180.078125 308.417969 169.078125 C 303.300781 159.546875 299.710938 149.511719 298.109375 138.785156 C 296.375 127.136719 297.925781 115.394531 295.300781 103.839844 C 292.585938 91.898438 287.027344 80.496094 280.039062 70.488281 C 257.875 38.746094 219.457031 26.585938 182.175781 25.988281 C 142.925781 25.359375 98.40625 33.394531 71.386719 64.460938 C 52.304688 86.398438 46.078125 116.148438 45.164062 144.46875 C 44.546875 163.613281 45.628906 182.34375 51.734375 200.667969 C 59.886719 225.125 73.691406 248.417969 89.75 268.523438 C 99.410156 280.617188 113.320312 288.816406 113.652344 305.421875 C 113.917969 318.6875 113.652344 331.988281 113.652344 345.261719 C 113.652344 354.675781 99.019531 354.691406 99.019531 345.261719 C 99.019531 332.609375 99.019531 319.957031 99.019531 307.308594 C 99.019531 300.707031 96.675781 297.597656 91.871094 292.910156 C 85.761719 286.949219 80.359375 280.25 75.195312 273.480469 C 48.535156 238.519531 30.671875 199.046875 30.402344 154.707031 C 30.226562 125.457031 34.414062 94.902344 49.792969 69.460938 C 68.820312 37.980469 102.398438 20.957031 137.8125 14.839844 " fill-opacity="1" fill-rule="nonzero"/></g><path fill="#1368a9" d="M 222.722656 142.277344 C 232.898438 142.277344 243.074219 142.277344 253.246094 142.277344 C 248.15625 132.503906 243.074219 122.726562 237.984375 112.949219 C 232.898438 122.726562 227.808594 132.503906 222.722656 142.277344 Z M 262.417969 156.910156 C 246.21875 156.910156 230.023438 156.910156 213.824219 156.910156 C 220.84375 180 255.40625 180.050781 262.417969 156.910156 Z M 108.800781 112.949219 C 103.714844 122.726562 98.628906 132.503906 93.539062 142.277344 C 103.714844 142.277344 113.890625 142.277344 124.066406 142.277344 C 118.976562 132.503906 113.890625 122.726562 108.800781 112.949219 Z M 133.238281 156.910156 C 117.039062 156.910156 100.839844 156.910156 84.640625 156.910156 C 91.664062 180 126.222656 180.050781 133.238281 156.910156 Z M 228.628906 228.179688 C 192.3125 228.179688 155.992188 228.179688 119.671875 228.179688 C 110.257812 228.179688 110.242188 213.542969 119.671875 213.542969 C 135.203125 213.542969 150.730469 213.542969 166.257812 213.542969 C 166.457031 190.667969 166.621094 167.796875 166.726562 144.921875 C 166.792969 130.964844 166.828125 117.003906 166.816406 103.042969 C 155.03125 102.984375 143.246094 102.945312 131.464844 103 C 127.695312 103.015625 123.925781 103.046875 120.160156 103.101562 C 126.953125 116.160156 133.75 129.21875 140.542969 142.277344 C 140.957031 142.277344 141.375 142.277344 141.789062 142.277344 C 145.621094 142.277344 149.273438 145.628906 149.109375 149.59375 C 148.179688 171.335938 131.457031 189.847656 108.929688 189.753906 C 86.402344 189.660156 69.699219 171.472656 68.765625 149.59375 C 68.636719 146.570312 70.0625 144.535156 72.066406 143.453125 C 73.132812 142.730469 74.453125 142.277344 76.082031 142.277344 C 76.410156 142.277344 76.738281 142.277344 77.058594 142.277344 C 85.472656 126.109375 93.886719 109.941406 102.300781 93.777344 C 102.976562 91.851562 104.382812 90.144531 106.722656 89.226562 C 112.6875 86.890625 122.070312 88.421875 128.265625 88.382812 C 141.109375 88.300781 153.953125 88.34375 166.796875 88.40625 C 166.777344 83.167969 166.75 77.929688 166.652344 72.695312 C 166.613281 70.703125 166.355469 68.621094 166.496094 66.644531 C 166.554688 65.808594 166.527344 65.265625 166.492188 64.949219 C 166.570312 65.316406 166.761719 66.003906 167.207031 67.0625 C 163.589844 58.488281 176.195312 51.019531 179.84375 59.675781 C 183.164062 67.535156 181.386719 78.929688 181.429688 87.207031 C 181.433594 87.640625 181.429688 88.070312 181.433594 88.5 C 200.414062 88.617188 219.398438 88.757812 238.382812 88.964844 C 242.71875 89.011719 245.039062 92.144531 245.382812 95.496094 C 253.496094 111.089844 261.609375 126.683594 269.726562 142.277344 C 270.140625 142.277344 270.554688 142.277344 270.972656 142.277344 C 274.804688 142.277344 278.457031 145.628906 278.289062 149.59375 C 277.363281 171.335938 260.640625 189.847656 238.109375 189.753906 C 215.585938 189.660156 198.878906 171.472656 197.949219 149.59375 C 197.816406 146.570312 199.246094 144.535156 201.246094 143.453125 C 202.3125 142.730469 203.636719 142.277344 205.265625 142.277344 C 205.589844 142.277344 205.917969 142.277344 206.242188 142.277344 C 212.96875 129.347656 219.695312 116.425781 226.421875 103.5 C 211.433594 103.351562 196.441406 103.222656 181.453125 103.132812 C 181.457031 115.664062 181.433594 128.199219 181.378906 140.730469 C 181.277344 165.003906 181.101562 189.269531 180.894531 213.542969 C 196.804688 213.542969 212.714844 213.542969 228.628906 213.542969 C 238.042969 213.542969 238.058594 228.179688 228.628906 228.179688 " fill-opacity="1" fill-rule="nonzero"/></svg>