<svg xmlns="http://www.w3.org/2000/svg" xmlns:xlink="http://www.w3.org/1999/xlink" width="500" zoomAndPan="magnify" viewBox="0 0 375 374.999991" height="500" preserveAspectRatio="xMidYMid meet" version="1.0"><path fill="#36b9ea" d="M 109.492188 330.160156 L 233.972656 330.160156 L 233.972656 330.453125 L 224.9375 330.453125 C 225.898438 332.335938 227.824219 333.589844 230.082031 333.589844 C 233.261719 333.589844 235.894531 330.996094 235.894531 327.777344 L 235.894531 292.601562 C 249.867188 296.410156 279.480469 302.765625 293.828125 292.980469 C 293.910156 292.9375 293.996094 292.894531 294.078125 292.8125 C 301.859375 287.625 303.992188 277.421875 302.695312 268.722656 C 302.652344 267.886719 302.738281 264.789062 305.875 263.746094 L 305.917969 263.746094 C 307.128906 263.367188 308.089844 262.617188 308.800781 261.652344 C 314.074219 255.378906 311.0625 252.371094 307.253906 249.234375 L 307.882812 248.773438 C 315.160156 243.628906 315.371094 243.460938 309.261719 235.347656 C 308.511719 234.34375 307.714844 233.171875 307.085938 232.085938 C 306.585938 231.289062 306.25 230.578125 306.167969 230.160156 C 306.042969 229.449219 306 228.570312 306.167969 227.820312 C 306.210938 227.527344 306.292969 227.277344 306.417969 227.191406 C 306.542969 227.066406 306.835938 226.941406 307.339844 226.855469 C 308.46875 226.648438 310.097656 226.730469 312.316406 227.234375 L 312.316406 227.277344 C 312.777344 227.359375 313.277344 227.402344 313.738281 227.402344 C 317.542969 227.609375 337.203125 227.820312 328.253906 207.578125 C 322.941406 195.488281 310.015625 181.355469 306.25 177.378906 C 305.917969 174.871094 307.085938 169.769531 308.46875 163.914062 C 310.476562 155.214844 312.816406 145.136719 311.6875 135.265625 C 305.875 82.984375 267.226562 52.789062 221.675781 42.753906 C 193.191406 36.480469 161.984375 38.152344 134.546875 47.3125 C 106.8125 56.554688 82.847656 73.492188 69.335938 97.625 C 50.09375 131.835938 51.9375 180.097656 93.847656 240.742188 L 93.972656 240.910156 L 93.929688 240.910156 L 93.972656 240.910156 C 96.609375 245.550781 120.449219 289.464844 97.652344 327.652344 C 95.980469 330.410156 96.902344 333.964844 99.621094 335.597656 C 102.378906 337.230469 105.9375 336.351562 107.566406 333.589844 C 108.195312 332.542969 108.78125 331.5 109.324219 330.453125 L 105.9375 330.453125 L 105.9375 330.160156 Z M 109.492188 330.160156 " fill-opacity="1" fill-rule="evenodd"/><path fill="#1368a9" d="M 224.226562 327.609375 C 224.226562 330.789062 226.820312 333.378906 230.039062 333.378906 C 233.21875 333.378906 235.8125 330.789062 235.8125 327.609375 L 235.8125 292.476562 C 249.78125 296.285156 279.398438 302.640625 293.703125 292.855469 C 293.785156 292.8125 293.871094 292.730469 293.953125 292.6875 C 296.628906 290.886719 304.621094 284.195312 302.570312 268.804688 L 302.613281 268.804688 C 302.570312 268.804688 302.570312 268.722656 302.570312 268.640625 L 302.570312 268.597656 C 302.527344 267.800781 302.613281 264.707031 305.75 263.660156 L 303.949219 258.140625 L 305.75 263.660156 C 306.960938 263.242188 307.964844 262.492188 308.636719 261.527344 C 313.90625 255.296875 310.9375 252.285156 307.128906 249.148438 C 307.339844 248.980469 307.546875 248.855469 307.757812 248.6875 C 314.992188 243.542969 315.242188 243.378906 309.136719 235.265625 C 308.382812 234.261719 307.546875 233.128906 306.921875 232.042969 C 306.460938 231.207031 306.082031 230.496094 306.042969 230.078125 C 305.917969 229.410156 305.832031 228.53125 306 227.734375 C 306.082031 227.484375 306.167969 227.234375 306.292969 227.109375 C 306.375 227.023438 306.667969 226.898438 307.214844 226.816406 C 308.34375 226.605469 309.933594 226.691406 312.191406 227.191406 C 312.652344 227.316406 313.109375 227.359375 313.570312 227.359375 C 317.378906 227.570312 337.035156 227.777344 328.085938 207.535156 C 322.773438 195.488281 309.890625 181.355469 306.125 177.378906 C 305.789062 174.914062 306.960938 169.8125 308.300781 163.914062 C 310.351562 155.257812 312.652344 145.21875 311.5625 135.304688 C 305.75 83.113281 267.140625 52.957031 221.675781 42.960938 C 193.191406 36.6875 162.027344 38.359375 134.628906 47.476562 C 106.941406 56.722656 83.015625 73.617188 69.460938 97.707031 C 50.261719 131.917969 52.101562 180.140625 93.972656 240.660156 L 94.058594 240.828125 L 94.097656 240.867188 C 96.734375 245.46875 120.535156 289.339844 97.738281 327.484375 C 96.105469 330.203125 97.027344 333.757812 99.746094 335.429688 C 102.507812 337.0625 106.0625 336.140625 107.691406 333.421875 C 133.792969 289.675781 107.105469 240.367188 104.09375 235.097656 C 103.96875 234.804688 103.800781 234.511719 103.636719 234.21875 L 103.59375 234.21875 C 64.609375 177.925781 62.394531 134.011719 79.585938 103.394531 C 91.628906 81.980469 113.171875 66.84375 138.3125 58.4375 C 163.742188 49.945312 192.730469 48.398438 219.164062 54.210938 C 260.113281 63.246094 294.875 90.179688 300.058594 136.601562 C 300.9375 144.550781 298.847656 153.582031 297.050781 161.363281 C 295.125 169.558594 293.492188 176.585938 295.375 181.9375 C 295.625 182.859375 296.085938 183.695312 296.796875 184.40625 L 300.9375 180.351562 L 296.796875 184.40625 C 296.839844 184.449219 312.066406 199.921875 317.503906 212.21875 C 319.007812 215.691406 315.496094 215.859375 314.324219 215.816406 C 310.644531 215.019531 307.671875 214.9375 305.207031 215.398438 C 302.027344 215.941406 299.683594 217.320312 297.925781 219.121094 C 296.210938 220.917969 295.207031 223.050781 294.75 225.183594 C 294.164062 227.734375 294.289062 230.285156 294.582031 232.085938 C 294.914062 233.96875 295.792969 235.933594 296.921875 237.855469 C 297.507812 238.902344 298.21875 239.949219 298.847656 240.867188 C 298.386719 241.246094 297.886719 241.664062 297.339844 242.121094 C 296.589844 242.625 296.003906 243.335938 295.542969 244.171875 L 300.730469 246.808594 L 295.542969 244.171875 C 292.699219 249.859375 294.328125 253.039062 296.796875 255.507812 C 290.984375 260.148438 290.898438 267.382812 291.027344 269.476562 C 291.027344 269.726562 291.066406 269.976562 291.066406 270.1875 L 291.109375 270.1875 C 292.324219 279.21875 288.933594 282.1875 287.972656 282.816406 C 287.722656 282.941406 287.429688 283.109375 287.175781 283.277344 C 273.75 292.4375 237.152344 280.976562 232.382812 279.429688 C 231.628906 279.09375 230.875 278.925781 230.039062 278.925781 C 226.820312 278.925781 224.226562 281.519531 224.226562 284.742188 Z M 224.226562 327.609375 " fill-opacity="1" fill-rule="nonzero"/><path fill="#1368a9" d="M 245.433594 126.523438 C 238.574219 134.761719 230 141.453125 220.167969 146.054688 C 210.632812 150.570312 200.007812 153.082031 188.796875 153.082031 C 177.628906 153.082031 167.003906 150.570312 157.425781 146.054688 C 147.554688 141.414062 138.855469 134.636719 131.996094 126.316406 L 136.46875 122.59375 L 131.996094 126.316406 C 130.113281 124.054688 130.238281 120.792969 132.203125 118.660156 C 139.023438 110.464844 147.636719 103.773438 157.425781 99.171875 C 167.003906 94.65625 177.628906 92.144531 188.796875 92.144531 C 200.007812 92.144531 210.632812 94.65625 220.167969 99.171875 C 230.082031 103.8125 238.742188 110.589844 245.640625 118.910156 L 241.167969 122.59375 L 245.640625 118.910156 C 247.523438 121.171875 247.355469 124.433594 245.433594 126.523438 Z M 215.234375 135.597656 C 222.050781 132.378906 228.199219 127.945312 233.386719 122.59375 C 228.199219 117.238281 222.050781 112.847656 215.234375 109.628906 C 207.242188 105.863281 198.292969 103.730469 188.796875 103.730469 C 179.34375 103.730469 170.394531 105.863281 162.402344 109.628906 C 155.585938 112.847656 149.4375 117.238281 144.25 122.59375 C 149.4375 127.945312 155.585938 132.378906 162.402344 135.597656 C 170.394531 139.363281 179.34375 141.453125 188.796875 141.453125 C 198.292969 141.453125 207.242188 139.363281 215.234375 135.597656 Z M 215.234375 135.597656 " fill-opacity="1" fill-rule="nonzero"/><path fill="#1368a9" d="M 145.296875 90.097656 C 143.664062 87.335938 140.152344 86.414062 137.390625 88.003906 C 134.589844 89.59375 133.667969 93.148438 135.257812 95.910156 L 141.40625 106.574219 C 143.039062 109.335938 146.550781 110.296875 149.3125 108.664062 C 152.113281 107.074219 153.035156 103.519531 151.445312 100.761719 Z M 145.296875 90.097656 " fill-opacity="1" fill-rule="nonzero"/><path fill="#1368a9" d="M 242.378906 95.910156 C 243.96875 93.148438 243.007812 89.59375 240.246094 88.003906 C 237.484375 86.414062 233.972656 87.335938 232.339844 90.097656 L 226.191406 100.761719 C 224.601562 103.519531 225.523438 107.074219 228.324219 108.664062 C 231.085938 110.296875 234.597656 109.335938 236.230469 106.574219 Z M 242.378906 95.910156 " fill-opacity="1" fill-rule="nonzero"/><path fill="#1368a9" d="M 194.613281 81.0625 C 194.613281 77.839844 192.019531 75.25 188.796875 75.25 C 185.617188 75.25 183.023438 77.839844 183.023438 81.0625 L 183.023438 93.359375 C 183.023438 96.578125 185.617188 99.171875 188.796875 99.171875 C 192.019531 99.171875 194.613281 96.578125 194.613281 93.359375 Z M 194.613281 81.0625 " fill-opacity="1" fill-rule="nonzero"/><path fill="#1368a9" d="M 188.796875 92.144531 C 197.246094 92.144531 204.859375 95.574219 210.339844 101.09375 C 215.859375 106.574219 219.289062 114.1875 219.289062 122.59375 C 219.289062 131 215.859375 138.609375 210.339844 144.132812 C 204.859375 149.652344 197.246094 153.039062 188.796875 153.039062 C 180.390625 153.039062 172.777344 149.652344 167.296875 144.132812 C 161.777344 138.609375 158.347656 131 158.347656 122.59375 C 158.347656 114.1875 161.777344 106.574219 167.296875 101.09375 C 172.777344 95.574219 180.390625 92.144531 188.796875 92.144531 Z M 202.140625 109.292969 C 198.753906 105.863281 194.027344 103.773438 188.796875 103.773438 C 183.609375 103.773438 178.882812 105.863281 175.496094 109.292969 C 172.066406 112.679688 169.976562 117.40625 169.976562 122.59375 C 169.976562 127.820312 172.066406 132.503906 175.496094 135.933594 C 178.882812 139.363281 183.609375 141.453125 188.796875 141.453125 C 194.027344 141.453125 198.753906 139.363281 202.140625 135.933594 C 205.570312 132.503906 207.660156 127.820312 207.660156 122.59375 C 207.660156 117.40625 205.570312 112.679688 202.140625 109.292969 Z M 202.140625 109.292969 " fill-opacity="1" fill-rule="nonzero"/><path fill="#6b809b" d="M 175.496094 135.933594 C 178.882812 139.363281 183.609375 141.453125 188.796875 141.453125 C 194.027344 141.453125 198.753906 139.363281 202.140625 135.933594 C 205.570312 132.503906 207.660156 127.820312 207.660156 122.59375 C 207.660156 117.40625 205.570312 112.679688 202.140625 109.292969 C 198.753906 105.863281 194.027344 103.773438 188.796875 103.773438 C 183.609375 103.773438 178.882812 105.863281 175.496094 109.292969 C 172.066406 112.679688 169.976562 117.40625 169.976562 122.59375 C 169.976562 127.820312 172.066406 132.503906 175.496094 135.933594 Z M 175.496094 135.933594 " fill-opacity="1" fill-rule="evenodd"/><path fill="#6b809b" d="M 160.941406 134.886719 C 159.265625 131.125 158.347656 126.984375 158.347656 122.59375 C 158.347656 118.242188 159.265625 114.101562 160.941406 110.339844 C 154.707031 113.476562 149.0625 117.617188 144.25 122.59375 C 149.0625 127.570312 154.707031 131.75 160.941406 134.886719 Z M 160.941406 134.886719 " fill-opacity="1" fill-rule="evenodd"/><path fill="#6b809b" d="M 219.289062 122.59375 C 219.289062 126.984375 218.371094 131.125 216.695312 134.886719 C 222.929688 131.75 228.574219 127.570312 233.386719 122.59375 C 228.574219 117.617188 222.929688 113.476562 216.695312 110.339844 C 218.371094 114.101562 219.289062 118.242188 219.289062 122.59375 Z M 219.289062 122.59375 " fill-opacity="1" fill-rule="evenodd"/><path fill="#6b809b" d="M 160.941406 134.886719 C 159.265625 131.125 158.347656 126.984375 158.347656 122.59375 C 158.347656 118.242188 159.265625 114.101562 160.941406 110.339844 C 154.707031 113.476562 149.0625 117.617188 144.25 122.59375 C 149.0625 127.570312 154.707031 131.75 160.941406 134.886719 Z M 160.941406 134.886719 " fill-opacity="1" fill-rule="evenodd"/><path fill="#36b9ea" d="M 219.289062 122.59375 C 219.289062 126.984375 218.371094 131.125 216.695312 134.886719 C 222.929688 131.75 228.574219 127.570312 233.386719 122.59375 C 228.574219 117.617188 222.929688 113.476562 216.695312 110.339844 C 218.371094 114.101562 219.289062 118.242188 219.289062 122.59375 Z M 219.289062 122.59375 " fill-opacity="1" fill-rule="evenodd"/><path fill="#36b9ea" d="M 160.941406 134.886719 C 159.265625 131.125 158.347656 126.984375 158.347656 122.59375 C 158.347656 118.242188 159.265625 114.101562 160.941406 110.339844 C 154.707031 113.476562 149.0625 117.617188 144.25 122.59375 C 149.0625 127.570312 154.707031 131.75 160.941406 134.886719 Z M 160.941406 134.886719 " fill-opacity="1" fill-rule="evenodd"/><path fill="#dffc01" d="M 169.976562 122.59375 C 169.976562 127.820312 172.066406 132.503906 175.496094 135.933594 C 178.882812 139.363281 183.609375 141.453125 188.796875 141.453125 C 194.027344 141.453125 198.753906 139.363281 202.140625 135.933594 C 205.570312 132.503906 207.660156 127.820312 207.660156 122.59375 C 207.660156 117.40625 205.570312 112.679688 202.140625 109.292969 C 198.753906 105.863281 194.027344 103.773438 188.796875 103.773438 C 183.609375 103.773438 178.882812 105.863281 175.496094 109.292969 C 172.066406 112.679688 169.976562 117.40625 169.976562 122.59375 Z M 169.976562 122.59375 " fill-opacity="1" fill-rule="evenodd"/></svg>