<svg xmlns="http://www.w3.org/2000/svg" xmlns:xlink="http://www.w3.org/1999/xlink" width="100" zoomAndPan="magnify" viewBox="0 0 75 30.000001" height="40" preserveAspectRatio="xMidYMid meet" version="1.0"><path fill="#1d2ae8" d="M 15.34375 19.128906 L 14.304688 19.128906 C 14.304688 19.113281 14.304688 19.113281 14.304688 19.113281 L 13.96875 18.28125 L 14.738281 18.28125 L 14.011719 16.488281 L 12.945312 16.488281 L 12.609375 15.640625 L 13.324219 15.640625 L 12.460938 13.5 L 13.082031 13.5 L 12.972656 13.214844 L 11.976562 13.214844 L 11.425781 11.855469 L 12.085938 11.855469 L 11.734375 11.007812 L 10.738281 11.007812 L 10.238281 9.78125 C 10.238281 9.769531 10.226562 9.757812 10.226562 9.730469 L 9.648438 9.730469 C 9.621094 9.675781 9.59375 9.621094 9.578125 9.582031 C 9.566406 9.539062 9.539062 9.5 9.527344 9.445312 L 11.210938 9.445312 C 11.074219 9.097656 10.820312 8.800781 10.496094 8.609375 L 10.09375 8.609375 C 9.847656 8.464844 9.566406 8.382812 9.257812 8.382812 C 8.960938 8.382812 8.664062 8.464844 8.421875 8.609375 L 8.8125 8.609375 C 8.785156 8.625 8.757812 8.652344 8.71875 8.664062 C 8.652344 8.707031 8.582031 8.757812 8.53125 8.800781 C 8.367188 8.933594 8.234375 9.148438 8.085938 9.445312 L 6.402344 9.445312 C 6.363281 9.539062 6.320312 9.632812 6.28125 9.730469 L 6.847656 9.730469 C 6.847656 9.757812 6.832031 9.769531 6.832031 9.78125 L 6.335938 11.007812 L 7.332031 11.007812 L 6.996094 11.855469 L 6.335938 11.855469 L 5.78125 13.214844 L 6.777344 13.214844 L 6.671875 13.5 L 6.039062 13.5 L 5.175781 15.640625 L 4.464844 15.640625 L 4.125 16.488281 L 5.191406 16.488281 L 4.464844 18.28125 L 3.679688 18.28125 L 3.359375 19.113281 C 3.359375 19.113281 3.34375 19.113281 3.34375 19.128906 L 4.394531 19.128906 C 4.355469 19.234375 4.339844 19.316406 4.355469 19.398438 L 3.277344 19.398438 C 3.289062 19.410156 3.289062 19.425781 3.289062 19.4375 C 3.304688 19.519531 3.371094 19.640625 3.585938 19.640625 L 5.070312 19.640625 C 5.230469 19.640625 5.351562 19.546875 5.417969 19.398438 L 6.496094 19.398438 C 6.507812 19.382812 6.523438 19.371094 6.523438 19.359375 L 6.617188 19.128906 L 5.566406 19.128906 L 5.902344 18.28125 L 6.683594 18.28125 L 7.019531 17.433594 L 9.96875 17.433594 C 10.117188 17.433594 10.253906 17.363281 10.320312 17.242188 C 10.402344 17.136719 10.414062 16.988281 10.375 16.851562 L 10.226562 16.488281 L 9.164062 16.488281 L 8.824219 15.652344 C 8.824219 15.652344 8.824219 15.640625 8.824219 15.640625 L 9.539062 15.640625 C 9.472656 15.492188 9.324219 15.382812 9.148438 15.382812 L 7.492188 15.382812 L 7.734375 14.777344 L 9.082031 14.777344 L 9.082031 14.628906 L 7.789062 14.628906 L 8.234375 13.5 L 8.851562 13.5 L 8.972656 13.214844 L 7.976562 13.214844 L 8.515625 11.855469 L 9.175781 11.855469 L 9.5 11.023438 C 9.511719 11.007812 9.511719 11.007812 9.511719 11.007812 L 9.59375 11.007812 L 9.929688 11.855469 L 9.269531 11.855469 L 9.824219 13.214844 L 10.820312 13.214844 L 10.925781 13.5 L 10.308594 13.5 L 11.15625 15.640625 L 10.441406 15.640625 L 10.777344 16.488281 L 11.84375 16.488281 L 12.570312 18.28125 L 11.789062 18.28125 L 12.125 19.128906 L 13.175781 19.128906 L 13.257812 19.34375 C 13.269531 19.371094 13.285156 19.382812 13.285156 19.398438 L 12.207031 19.398438 C 12.285156 19.546875 12.40625 19.640625 12.570312 19.640625 L 14.011719 19.640625 C 14.226562 19.640625 14.28125 19.503906 14.304688 19.4375 C 14.304688 19.4375 14.304688 19.410156 14.304688 19.398438 L 15.382812 19.398438 C 15.398438 19.316406 15.382812 19.234375 15.34375 19.128906 Z M 8.542969 17.929688 L 10.804688 17.929688 L 10.804688 18.066406 L 8.542969 18.066406 Z M 6.199219 18.671875 L 7.679688 18.671875 L 7.679688 18.820312 L 6.199219 18.820312 Z M 6.199219 18.671875 " fill-opacity="1" fill-rule="nonzero"/><path fill="#1d2ae8" d="M 33.320312 10.738281 L 33.320312 10.726562 L 33.816406 10.726562 L 34.140625 9.714844 L 33.144531 9.714844 L 33.414062 8.894531 C 33.441406 8.828125 33.453125 8.757812 33.453125 8.691406 L 33.953125 8.691406 C 33.953125 8.652344 33.953125 8.609375 33.9375 8.570312 C 33.925781 8.488281 33.859375 8.371094 33.640625 8.371094 L 32.160156 8.371094 C 31.984375 8.371094 31.851562 8.476562 31.769531 8.664062 L 31.769531 8.691406 L 31.273438 8.691406 L 30.949219 9.714844 L 31.945312 9.714844 L 31.621094 10.726562 L 31.125 10.726562 L 31.125 10.738281 L 30.625 10.738281 L 30.304688 11.75 L 31.300781 11.75 L 30.976562 12.785156 L 29.980469 12.785156 L 29.871094 13.121094 L 30.867188 13.121094 L 30.371094 14.683594 L 29.628906 14.683594 L 29.304688 15.722656 L 29.804688 15.722656 L 29.46875 16.746094 C 29.46875 16.773438 29.453125 16.773438 29.453125 16.773438 L 29.402344 16.785156 C 29.402344 16.785156 29.402344 16.773438 29.386719 16.757812 L 29.089844 15.722656 L 28.59375 15.722656 L 28.296875 14.683594 L 29.035156 14.683594 L 28.578125 13.121094 L 27.582031 13.121094 L 27.488281 12.785156 L 28.484375 12.785156 L 28.1875 11.75 L 27.191406 11.75 L 26.894531 10.738281 L 27.394531 10.738281 L 27.378906 10.726562 L 27.878906 10.726562 L 27.597656 9.714844 L 26.597656 9.714844 L 26.304688 8.691406 L 26.800781 8.691406 L 26.789062 8.664062 C 26.722656 8.476562 26.585938 8.371094 26.410156 8.371094 L 24.890625 8.371094 C 24.714844 8.371094 24.578125 8.476562 24.5 8.664062 L 24.5 8.691406 L 24 8.691406 L 23.675781 9.714844 L 24.660156 9.714844 L 24.351562 10.726562 L 23.851562 10.726562 L 23.851562 10.738281 L 23.355469 10.738281 L 23.03125 11.75 L 24.027344 11.75 L 23.703125 12.785156 L 21.914062 12.785156 L 21.804688 13.121094 L 23.597656 13.121094 L 23.097656 14.683594 L 22.359375 14.683594 L 22.035156 15.722656 L 22.519531 15.722656 L 22.195312 16.746094 C 22.195312 16.773438 22.183594 16.773438 22.183594 16.773438 L 22.128906 16.785156 C 22.128906 16.785156 22.128906 16.773438 22.117188 16.757812 L 21.820312 15.722656 L 21.320312 15.722656 L 21.011719 14.683594 L 21.765625 14.683594 L 21.308594 13.121094 L 20.308594 13.121094 L 20.214844 12.785156 L 21.214844 12.785156 L 20.902344 11.75 L 19.921875 11.75 L 19.625 10.738281 L 20.121094 10.738281 L 20.109375 10.726562 L 20.605469 10.726562 L 20.324219 9.714844 L 19.328125 9.714844 L 19.03125 8.691406 L 19.515625 8.691406 L 19.515625 8.664062 C 19.449219 8.476562 19.3125 8.371094 19.125 8.371094 L 17.683594 8.371094 C 17.46875 8.371094 17.414062 8.503906 17.402344 8.570312 C 17.386719 8.609375 17.386719 8.652344 17.386719 8.691406 L 16.890625 8.691406 C 16.890625 8.757812 16.902344 8.828125 16.929688 8.894531 L 17.171875 9.714844 L 18.167969 9.714844 L 18.464844 10.726562 L 17.96875 10.726562 L 17.980469 10.738281 L 17.484375 10.738281 L 17.777344 11.75 L 18.777344 11.75 L 19.085938 12.785156 L 18.089844 12.785156 L 18.195312 13.121094 L 19.191406 13.121094 L 19.652344 14.683594 L 18.910156 14.683594 L 19.21875 15.722656 L 19.71875 15.722656 L 20.136719 17.121094 L 19.394531 17.121094 L 19.679688 18.078125 L 20.675781 18.078125 L 20.714844 18.226562 C 20.742188 18.292969 20.78125 18.375 20.808594 18.429688 C 20.847656 18.589844 20.917969 18.738281 21.011719 18.871094 L 20.269531 18.871094 C 20.566406 19.332031 21.09375 19.628906 21.65625 19.628906 C 21.992188 19.628906 22.316406 19.53125 22.585938 19.34375 C 22.667969 19.304688 22.734375 19.25 22.789062 19.210938 C 22.882812 19.128906 22.976562 19.007812 23.058594 18.871094 L 23.8125 18.871094 C 23.921875 18.699219 24.027344 18.480469 24.136719 18.210938 L 24.175781 18.078125 L 23.179688 18.078125 L 23.488281 17.121094 L 24.230469 17.121094 L 24.6875 15.722656 L 24.1875 15.722656 L 24.527344 14.683594 L 25.265625 14.683594 L 25.777344 13.121094 L 26.464844 13.121094 L 26.9375 14.683594 L 26.183594 14.683594 L 26.492188 15.722656 L 26.988281 15.722656 L 27.40625 17.121094 L 26.667969 17.121094 L 26.949219 18.078125 L 27.945312 18.078125 L 27.988281 18.226562 C 28.011719 18.292969 28.054688 18.375 28.082031 18.429688 C 28.121094 18.589844 28.203125 18.738281 28.28125 18.871094 L 27.542969 18.871094 C 27.839844 19.332031 28.363281 19.628906 28.929688 19.628906 C 29.265625 19.628906 29.589844 19.53125 29.859375 19.34375 C 29.9375 19.304688 30.007812 19.25 30.058594 19.210938 C 30.15625 19.128906 30.25 19.007812 30.328125 18.871094 L 31.082031 18.871094 C 31.191406 18.699219 31.300781 18.480469 31.40625 18.210938 L 31.449219 18.078125 L 30.449219 18.078125 L 30.761719 17.121094 L 31.515625 17.121094 L 31.957031 15.722656 L 31.460938 15.722656 L 31.796875 14.683594 L 32.539062 14.683594 L 33.050781 13.121094 L 32.054688 13.121094 L 32.160156 12.785156 L 33.15625 12.785156 L 33.480469 11.75 L 32.496094 11.75 L 32.820312 10.738281 Z M 30.019531 12.488281 L 28.820312 12.488281 L 28.820312 12.140625 L 30.019531 12.140625 Z M 30.707031 10.46875 L 28.484375 10.46875 L 28.484375 10.199219 L 30.707031 10.199219 Z M 23.070312 10.335938 L 20.945312 10.335938 L 20.945312 10.023438 L 23.070312 10.023438 Z M 23.070312 10.335938 " fill-opacity="1" fill-rule="nonzero"/><path fill="#1d2ae8" d="M 48.65625 19.128906 L 47.617188 19.128906 C 47.617188 19.113281 47.617188 19.113281 47.617188 19.113281 L 47.28125 18.28125 L 48.050781 18.28125 L 47.320312 16.488281 L 46.257812 16.488281 L 45.921875 15.640625 L 46.636719 15.640625 L 45.773438 13.5 L 46.390625 13.5 L 46.285156 13.214844 L 45.289062 13.214844 L 44.738281 11.855469 L 45.394531 11.855469 L 45.046875 11.007812 L 44.050781 11.007812 L 43.550781 9.78125 C 43.550781 9.769531 43.539062 9.757812 43.539062 9.730469 L 42.957031 9.730469 C 42.929688 9.675781 42.90625 9.621094 42.890625 9.582031 C 42.878906 9.539062 42.851562 9.5 42.835938 9.445312 L 44.519531 9.445312 C 44.386719 9.097656 44.128906 8.800781 43.808594 8.609375 L 43.402344 8.609375 C 43.160156 8.464844 42.878906 8.382812 42.566406 8.382812 C 42.269531 8.382812 41.976562 8.464844 41.734375 8.609375 L 42.125 8.609375 C 42.097656 8.625 42.070312 8.652344 42.03125 8.664062 C 41.960938 8.707031 41.894531 8.757812 41.839844 8.800781 C 41.679688 8.933594 41.546875 9.148438 41.394531 9.445312 L 39.714844 9.445312 C 39.671875 9.539062 39.632812 9.632812 39.59375 9.730469 L 40.15625 9.730469 C 40.15625 9.757812 40.144531 9.769531 40.144531 9.78125 L 39.644531 11.007812 L 40.640625 11.007812 L 40.304688 11.855469 L 39.644531 11.855469 L 39.09375 13.214844 L 40.089844 13.214844 L 39.984375 13.5 L 39.347656 13.5 L 38.488281 15.640625 L 37.773438 15.640625 L 37.4375 16.488281 L 38.5 16.488281 L 37.773438 18.28125 L 36.992188 18.28125 L 36.671875 19.113281 C 36.671875 19.113281 36.65625 19.113281 36.65625 19.128906 L 37.707031 19.128906 C 37.664062 19.234375 37.652344 19.316406 37.664062 19.398438 L 36.589844 19.398438 C 36.601562 19.410156 36.601562 19.425781 36.601562 19.4375 C 36.617188 19.519531 36.683594 19.640625 36.898438 19.640625 L 38.378906 19.640625 C 38.542969 19.640625 38.664062 19.546875 38.730469 19.398438 L 39.808594 19.398438 C 39.820312 19.382812 39.832031 19.371094 39.832031 19.359375 L 39.929688 19.128906 L 38.878906 19.128906 L 39.214844 18.28125 L 39.996094 18.28125 L 40.332031 17.433594 L 43.28125 17.433594 C 43.429688 17.433594 43.5625 17.363281 43.632812 17.242188 C 43.714844 17.136719 43.726562 16.988281 43.683594 16.851562 L 43.539062 16.488281 L 42.472656 16.488281 L 42.136719 15.652344 C 42.136719 15.652344 42.136719 15.640625 42.136719 15.640625 L 42.851562 15.640625 C 42.785156 15.492188 42.636719 15.382812 42.460938 15.382812 L 40.804688 15.382812 L 41.046875 14.777344 L 42.394531 14.777344 L 42.394531 14.628906 L 41.101562 14.628906 L 41.546875 13.5 L 42.164062 13.5 L 42.285156 13.214844 L 41.289062 13.214844 L 41.828125 11.855469 L 42.488281 11.855469 L 42.808594 11.023438 C 42.824219 11.007812 42.824219 11.007812 42.824219 11.007812 L 42.90625 11.007812 L 43.242188 11.855469 L 42.582031 11.855469 L 43.132812 13.214844 L 44.128906 13.214844 L 44.238281 13.5 L 43.617188 13.5 L 44.46875 15.640625 L 43.753906 15.640625 L 44.089844 16.488281 L 45.152344 16.488281 L 45.882812 18.28125 L 45.097656 18.28125 L 45.4375 19.128906 L 46.488281 19.128906 L 46.566406 19.34375 C 46.582031 19.371094 46.59375 19.382812 46.59375 19.398438 L 45.515625 19.398438 C 45.597656 19.546875 45.71875 19.640625 45.882812 19.640625 L 47.320312 19.640625 C 47.535156 19.640625 47.589844 19.503906 47.617188 19.4375 C 47.617188 19.4375 47.617188 19.410156 47.617188 19.398438 L 48.695312 19.398438 C 48.707031 19.316406 48.695312 19.234375 48.65625 19.128906 Z M 41.855469 17.929688 L 44.117188 17.929688 L 44.117188 18.066406 L 41.855469 18.066406 Z M 39.511719 18.671875 L 40.992188 18.671875 L 40.992188 18.820312 L 39.511719 18.820312 Z M 39.511719 18.671875 " fill-opacity="1" fill-rule="nonzero"/><path fill="#1d2ae8" d="M 59.871094 19.265625 L 59.171875 19.265625 C 59.15625 19.167969 59.15625 19.101562 59.117188 19.046875 L 58.726562 18.359375 L 59.628906 18.359375 L 59.453125 18.066406 L 58.738281 18.066406 L 57.945312 16.691406 L 58.457031 16.691406 L 57.945312 15.800781 L 57.082031 15.800781 L 56.625 15.007812 C 56.476562 14.753906 56.328125 14.535156 56.179688 14.335938 L 58.375 14.335938 C 58.296875 14.226562 58.199219 14.132812 58.121094 14.039062 L 56.058594 14.039062 C 56.019531 14.011719 55.992188 13.972656 55.953125 13.945312 C 56.046875 13.835938 56.128906 13.730469 56.222656 13.59375 C 56.328125 13.417969 56.449219 13.214844 56.585938 12.988281 L 57.285156 11.75 L 57.660156 11.75 L 58.171875 10.859375 L 58.589844 10.859375 L 58.941406 10.242188 L 58.214844 10.242188 L 58.726562 9.339844 L 59.371094 9.339844 L 59.519531 9.082031 C 59.558594 8.988281 59.574219 8.878906 59.558594 8.757812 C 59.519531 8.609375 59.414062 8.53125 59.25 8.53125 L 57.917969 8.53125 C 57.769531 8.53125 57.675781 8.558594 57.621094 8.609375 C 57.566406 8.652344 57.515625 8.707031 57.472656 8.800781 L 57.164062 9.339844 L 56.515625 9.339844 L 56.019531 10.242188 L 56.746094 10.242188 L 56.394531 10.859375 L 55.964844 10.859375 L 55.453125 11.75 L 55.078125 11.75 L 54.714844 12.394531 C 54.644531 12.53125 54.566406 12.636719 54.484375 12.730469 C 54.429688 12.8125 54.347656 12.878906 54.269531 12.921875 C 54.199219 12.960938 54.105469 12.988281 54 13 C 53.878906 13.015625 53.730469 13.027344 53.554688 13.027344 L 52.316406 13.027344 L 52.316406 11.75 L 53.3125 11.75 L 53.3125 10.859375 L 53.125 10.859375 L 53.125 10.242188 L 52.394531 10.242188 L 52.394531 9.339844 L 53.042969 9.339844 L 53.042969 9 C 53.042969 8.570312 52.773438 8.53125 52.664062 8.53125 L 51.425781 8.53125 C 51.320312 8.53125 51.035156 8.570312 51.035156 9 L 51.035156 9.339844 L 50.402344 9.339844 L 50.402344 10.242188 L 51.132812 10.242188 L 51.132812 10.859375 L 50.59375 10.859375 L 50.59375 11.75 L 50.324219 11.75 L 50.324219 14.039062 L 51.132812 14.039062 L 51.132812 14.335938 L 50.1875 14.335938 L 50.1875 15.800781 L 51.050781 15.800781 L 51.050781 16.691406 L 50.363281 16.691406 L 50.363281 18.066406 L 50.808594 18.066406 L 50.808594 18.359375 L 50.335938 18.359375 L 50.335938 19.167969 C 50.335938 19.195312 50.347656 19.234375 50.347656 19.265625 L 51.050781 19.265625 C 51.078125 19.585938 51.320312 19.640625 51.425781 19.640625 L 52.652344 19.640625 C 52.761719 19.640625 52.988281 19.585938 53.03125 19.265625 L 52.328125 19.265625 C 52.328125 19.234375 52.34375 19.195312 52.34375 19.167969 L 52.34375 18.359375 L 54.523438 18.359375 L 54.523438 18.066406 L 52.371094 18.066406 L 52.371094 16.691406 L 53.042969 16.691406 L 53.042969 15.800781 L 52.179688 15.800781 L 52.179688 15.019531 L 53.539062 15.019531 C 53.878906 15.019531 54.121094 15.0625 54.269531 15.15625 C 54.417969 15.238281 54.566406 15.414062 54.714844 15.679688 L 54.792969 15.800781 L 55.640625 15.800781 L 56.152344 16.691406 L 55.640625 16.691406 L 56.421875 18.066406 L 57.136719 18.066406 L 57.296875 18.359375 L 56.394531 18.359375 L 56.90625 19.265625 L 57.609375 19.265625 L 57.660156 19.371094 C 57.714844 19.453125 57.757812 19.519531 57.808594 19.558594 C 57.878906 19.613281 57.972656 19.640625 58.09375 19.640625 L 59.558594 19.640625 C 59.734375 19.640625 59.855469 19.53125 59.871094 19.359375 C 59.871094 19.316406 59.871094 19.289062 59.871094 19.265625 Z M 55.25 9.917969 L 53.285156 9.917969 L 53.285156 9.742188 L 55.25 9.742188 Z M 54.699219 16.152344 L 53.394531 16.152344 L 53.394531 15.976562 L 54.699219 15.976562 Z M 56.128906 19.140625 L 54.242188 19.140625 L 54.242188 19.007812 L 56.128906 19.007812 Z M 56.128906 19.140625 " fill-opacity="1" fill-rule="nonzero"/><path fill="#1d2ae8" d="M 70.425781 9.027344 L 70.425781 8.976562 C 70.425781 8.558594 70.171875 8.503906 70.050781 8.503906 L 62.320312 8.503906 C 62.199219 8.503906 61.941406 8.558594 61.941406 8.988281 L 61.941406 9.027344 L 63.449219 9.027344 L 63.449219 9.296875 L 61.941406 9.296875 L 61.941406 10.039062 C 61.941406 10.066406 61.941406 10.105469 61.957031 10.132812 L 62.789062 10.132812 C 62.832031 10.457031 63.058594 10.496094 63.152344 10.496094 L 70.898438 10.511719 C 70.992188 10.511719 71.222656 10.46875 71.261719 10.132812 L 70.425781 10.132812 C 70.425781 10.105469 70.425781 10.078125 70.425781 10.039062 L 70.425781 9.296875 L 71.933594 9.296875 L 71.933594 9.027344 Z M 71.222656 18.589844 L 71.222656 17.703125 C 71.222656 17.5 71.152344 17.390625 71.074219 17.324219 L 72.257812 17.324219 C 72.175781 17.242188 72.070312 17.230469 72.015625 17.230469 L 67.261719 17.230469 C 66.980469 17.230469 66.75 17.203125 66.574219 17.136719 C 66.398438 17.082031 66.265625 16.988281 66.15625 16.839844 C 66.089844 16.746094 66.035156 16.625 65.996094 16.488281 L 64.90625 16.488281 C 64.878906 16.421875 64.851562 16.328125 64.835938 16.246094 C 64.824219 16.167969 64.824219 16.085938 64.8125 16.003906 C 64.8125 16.003906 64.8125 15.921875 64.8125 15.800781 L 69.792969 15.800781 C 69.792969 15.707031 69.792969 15.574219 69.792969 15.464844 L 64.824219 15.464844 C 64.824219 15.34375 64.824219 15.222656 64.824219 15.144531 L 65.644531 15.144531 C 65.644531 15.074219 65.644531 15.035156 65.644531 15.035156 L 71.664062 15.035156 C 71.746094 15.035156 71.894531 15.019531 71.976562 14.875 L 71.152344 14.875 C 71.179688 14.804688 71.222656 14.710938 71.222656 14.578125 L 71.222656 14.066406 L 71.839844 14.066406 L 71.839844 13.6875 L 71.222656 13.6875 L 71.222656 13.511719 C 71.222656 13.09375 70.953125 13.042969 70.84375 13.042969 L 63.894531 13.054688 C 63.503906 13.082031 63.167969 13.296875 62.964844 13.621094 C 62.953125 13.648438 62.953125 13.675781 62.9375 13.6875 L 63.558594 13.6875 C 63.519531 13.78125 63.476562 13.863281 63.449219 13.972656 L 63.449219 14.066406 L 62.832031 14.066406 L 62.816406 14.875 L 63.640625 14.875 L 63.640625 15.144531 L 62.832031 15.144531 L 62.816406 15.464844 L 64.136719 15.464844 L 64.136719 15.734375 C 64.136719 15.75 64.136719 15.777344 64.136719 15.800781 L 62.816406 15.800781 C 62.832031 16.042969 62.84375 16.273438 62.859375 16.488281 L 63.960938 16.488281 C 63.988281 16.796875 64.03125 17.066406 64.082031 17.324219 L 62.898438 17.324219 C 62.898438 17.324219 62.914062 17.335938 62.914062 17.351562 C 63.019531 17.835938 63.195312 18.253906 63.4375 18.589844 L 64.554688 18.589844 C 64.566406 18.605469 64.582031 18.644531 64.609375 18.671875 C 64.664062 18.738281 64.714844 18.792969 64.785156 18.859375 L 63.679688 18.859375 C 63.921875 19.101562 64.21875 19.289062 64.554688 19.410156 C 64.960938 19.558594 65.472656 19.640625 66.0625 19.640625 L 70.84375 19.640625 C 70.964844 19.640625 71.234375 19.585938 71.234375 19.167969 L 71.234375 18.859375 L 72.324219 18.859375 L 72.324219 18.589844 Z M 63.558594 12.207031 L 68.015625 12.207031 L 68.015625 12.355469 L 63.558594 12.355469 Z M 67.734375 16.53125 L 70.722656 16.53125 L 70.722656 16.675781 L 67.734375 16.675781 Z M 65.472656 11.089844 L 70.035156 11.089844 L 70.035156 11.304688 L 65.472656 11.304688 Z M 65.472656 11.089844 " fill-opacity="1" fill-rule="nonzero"/></svg>